<svg width="26" height="24" viewBox="0 0 26 24" fill="none" xmlns="http://www.w3.org/2000/svg">
<g opacity="0.7">
<mask id="path-1-inside-1_206_48491" fill="white">
<path fill-rule="evenodd" clip-rule="evenodd" d="M16.6367 4H8.63672C7.53215 4 6.63672 4.89543 6.63672 6V18C6.63672 19.1046 7.53215 20 8.63672 20H18.6367C19.7413 20 20.6367 19.1046 20.6367 18V8L16.6367 4Z"/>
</mask>
<path d="M16.6367 4L17.3438 3.29289L17.0509 3H16.6367V4ZM20.6367 8H21.6367V7.58579L21.3438 7.29289L20.6367 8ZM8.63672 5H16.6367V3H8.63672V5ZM7.63672 6C7.63672 5.44772 8.08443 5 8.63672 5V3C6.97986 3 5.63672 4.34315 5.63672 6H7.63672ZM7.63672 18V6H5.63672V18H7.63672ZM8.63672 19C8.08443 19 7.63672 18.5523 7.63672 18H5.63672C5.63672 19.6569 6.97986 21 8.63672 21V19ZM18.6367 19H8.63672V21H18.6367V19ZM19.6367 18C19.6367 18.5523 19.189 19 18.6367 19V21C20.2936 21 21.6367 19.6569 21.6367 18H19.6367ZM19.6367 8V18H21.6367V8H19.6367ZM21.3438 7.29289L17.3438 3.29289L15.9296 4.70711L19.9296 8.70711L21.3438 7.29289Z" fill="white" mask="url(#path-1-inside-1_206_48491)"/>
<rect x="9.63672" y="12" width="8" height="1" rx="0.5" fill="white"/>
<rect x="9.63672" y="9" width="4" height="1" rx="0.5" fill="white"/>
<rect x="9.63672" y="15" width="8" height="1" rx="0.5" fill="white"/>
<path d="M16.1367 4.5V7.5C16.1367 8.05228 16.5844 8.5 17.1367 8.5H20.1367" stroke="white"/>
</g>
</svg>
