<svg width="52" height="53" viewBox="0 0 52 53" fill="none" xmlns="http://www.w3.org/2000/svg">
<g filter="url(#filter0_d_1651_43)">
<path d="M31.4759 10.6196C29.8873 10.6193 28.3208 10.991 26.9018 11.7051C25.4828 12.4191 24.2508 13.4557 23.3045 14.7316C22.3582 16.0075 21.7239 17.4874 21.4525 19.0526C21.1811 20.6177 21.2802 22.2247 21.7416 23.7448L10 35.4864V42.2683H16.7819L28.5235 30.5266C29.9227 30.9513 31.397 31.0694 32.846 30.8728C34.295 30.6762 35.6845 30.1695 36.92 29.3873C38.1554 28.6051 39.2077 27.5658 40.0052 26.3401C40.8026 25.1144 41.3264 23.7312 41.5409 22.2848C41.7554 20.8384 41.6556 19.3627 41.2482 17.9583C40.8409 16.554 40.1355 15.2539 39.1803 14.1468C38.225 13.0397 37.0423 12.1516 35.7128 11.5429C34.3832 10.9342 32.9381 10.6193 31.4759 10.6196ZM31.4759 28.7046C30.6977 28.7041 29.9238 28.5891 29.1791 28.3632L27.8826 27.9699L26.9252 28.9272L23.3297 32.5227L21.771 30.9652L20.1728 32.5634L21.7315 34.1221L19.9388 35.9148L18.3801 34.3561L16.7819 35.9544L18.3405 37.5131L15.846 40.0076H12.2606V36.4223L23.3399 25.343L24.2984 24.3857L23.9051 23.0892C23.4219 21.4966 23.4533 19.7922 23.9947 18.2184C24.5362 16.6447 25.5601 15.2817 26.9208 14.3235C28.2815 13.3652 29.9097 12.8604 31.5738 12.8808C33.238 12.9013 34.8533 13.446 36.19 14.4375C37.5268 15.429 38.5168 16.8167 39.0193 18.4033C39.5219 19.9899 39.5113 21.6945 38.9892 23.2748C38.467 24.855 37.4599 26.2304 36.111 27.2052C34.7621 28.18 33.1401 28.7047 31.4759 28.7046Z" fill="#C0C1C2"/>
<path d="M32.6063 21.9227C33.8548 21.9227 34.8669 20.9106 34.8669 19.6621C34.8669 18.4136 33.8548 17.4015 32.6063 17.4015C31.3578 17.4015 30.3457 18.4136 30.3457 19.6621C30.3457 20.9106 31.3578 21.9227 32.6063 21.9227Z" fill="#C0C1C2"/>
</g>
<defs>
<filter id="filter0_d_1651_43" x="0" y="0.619629" width="51.6509" height="51.6487" filterUnits="userSpaceOnUse" color-interpolation-filters="sRGB">
<feFlood flood-opacity="0" result="BackgroundImageFix"/>
<feColorMatrix in="SourceAlpha" type="matrix" values="0 0 0 0 0 0 0 0 0 0 0 0 0 0 0 0 0 0 127 0" result="hardAlpha"/>
<feOffset/>
<feGaussianBlur stdDeviation="5"/>
<feColorMatrix type="matrix" values="0 0 0 0 0.752941 0 0 0 0 0.756863 0 0 0 0 0.760784 0 0 0 0.5 0"/>
<feBlend mode="normal" in2="BackgroundImageFix" result="effect1_dropShadow_1651_43"/>
<feBlend mode="normal" in="SourceGraphic" in2="effect1_dropShadow_1651_43" result="shape"/>
</filter>
</defs>
</svg>
