<svg width="24" height="24" viewBox="0 0 24 24" fill="none" xmlns="http://www.w3.org/2000/svg">
<path fill-rule="evenodd" clip-rule="evenodd" d="M8 3.50012C7.86739 3.50012 7.74021 3.5528 7.64645 3.64657L5.64645 5.64657C5.55268 5.74034 5.5 5.86751 5.5 6.00012V8.00012H3C2.44772 8.00012 2 8.44784 2 9.00012V17.0001C2 17.5524 2.44772 18.0001 3 18.0001H5C5.18214 18.0001 5.35291 17.9514 5.5 17.8663V21.0001C5.5 21.2763 5.72386 21.5001 6 21.5001H18C18.2761 21.5001 18.5 21.2763 18.5 21.0001V17.8663C18.6471 17.9514 18.8179 18.0001 19 18.0001H21C21.5523 18.0001 22 17.5524 22 17.0001V9.00012C22 8.44784 21.5523 8.00012 21 8.00012H18.5V4.00012C18.5 3.72398 18.2761 3.50012 18 3.50012H8ZM17.5 8.00012V4.50012H8.20711L8 4.70723V6.00012H6.70711L6.5 6.20723V8.00012H17.5ZM5.5 9.00012C5.22386 9.00012 5 9.22398 5 9.50012C5 9.77626 5.22386 10.0001 5.5 10.0001H6.5C6.77614 10.0001 7 9.77626 7 9.50012C7 9.22398 6.77614 9.00012 6.5 9.00012H5.5ZM17.5 20.5001H6.5V15.5001H17.5V20.5001ZM8.5 17.0001C8.5 16.724 8.72386 16.5001 9 16.5001L15 16.5001C15.2761 16.5001 15.5 16.724 15.5 17.0001C15.5 17.2763 15.2761 17.5001 15 17.5001L9 17.5001C8.72386 17.5001 8.5 17.2763 8.5 17.0001ZM9 18.5001C8.72386 18.5001 8.5 18.724 8.5 19.0001C8.5 19.2763 8.72386 19.5001 9 19.5001H15C15.2761 19.5001 15.5 19.2763 15.5 19.0001C15.5 18.724 15.2761 18.5001 15 18.5001L9 18.5001ZM3.5 10.0001C3.77614 10.0001 4 9.77626 4 9.50012C4 9.22398 3.77614 9.00012 3.5 9.00012C3.22386 9.00012 3 9.22398 3 9.50012C3 9.77626 3.22386 10.0001 3.5 10.0001Z" fill="white" fill-opacity="0.7"/>
</svg>
