<svg width="24" height="24" viewBox="0 0 24 24" fill="none" xmlns="http://www.w3.org/2000/svg">
<g opacity="0.7">
<path fill-rule="evenodd" clip-rule="evenodd" d="M20 9.5H4V19C4 19.5523 4.44772 20 5 20H13.7578C13.2791 19.285 13 18.4251 13 17.5C13 15.0147 15.0147 13 17.5 13C18.4251 13 19.285 13.2791 20 13.7578V9.5Z" fill="white"/>
<path d="M4 6C4 5.44772 4.44772 5 5 5H19C19.5523 5 20 5.44772 20 6V8.5H4V6Z" fill="white"/>
<path d="M7 4C7 3.44772 7.44772 3 8 3V3C8.55228 3 9 3.44772 9 4V5H7V4Z" fill="white"/>
<path d="M15 4C15 3.44772 15.4477 3 16 3V3C16.5523 3 17 3.44772 17 4V5H15V4Z" fill="white"/>
<path fill-rule="evenodd" clip-rule="evenodd" d="M21 17.5C21 19.433 19.433 21 17.5 21C15.567 21 14 19.433 14 17.5C14 15.567 15.567 14 17.5 14C19.433 14 21 15.567 21 17.5ZM17 15.5C17 15.2239 17.2239 15 17.5 15C17.7761 15 18 15.2239 18 15.5V17H19.5C19.7761 17 20 17.2239 20 17.5C20 17.7761 19.7761 18 19.5 18H17.5C17.2239 18 17 17.7761 17 17.5V15.5Z" fill="white"/>
</g>
</svg>
