<svg width="20" height="20" viewBox="0 0 20 20" fill="none" xmlns="http://www.w3.org/2000/svg">
<path fill-rule="evenodd" clip-rule="evenodd" d="M10 20C15.5228 20 20 15.5228 20 10C20 4.47715 15.5228 0 10 0C4.47715 0 0 4.47715 0 10C0 15.5228 4.47715 20 10 20ZM13.8846 7.70385C14.2743 7.315 14.9053 7.31534 15.2946 7.70462C15.6842 8.09419 15.6842 8.72581 15.2946 9.11538L10.7071 13.7029C10.3166 14.0934 9.68342 14.0934 9.29289 13.7029L4.70538 9.11538C4.31581 8.72581 4.31581 8.09419 4.70538 7.70462C5.09466 7.31534 5.72569 7.315 6.11538 7.70385L10 11.58L13.8846 7.70385Z" fill="white"/>
</svg>
