<svg width="32" height="25" viewBox="0 0 32 25" fill="none" xmlns="http://www.w3.org/2000/svg">
<path d="M30 24.6196C30 24.6196 32 24.6196 32 22.6196C32 20.6196 30 14.6196 22 14.6196C14 14.6196 12 20.6196 12 22.6196C12 24.6196 14 24.6196 14 24.6196H30ZM14.044 22.6196C14.0292 22.6176 14.0145 22.6149 14 22.6116C14.002 22.0836 14.334 20.5516 15.52 19.1716C16.624 17.8776 18.564 16.6196 22 16.6196C25.434 16.6196 27.374 17.8796 28.48 19.1716C29.666 20.5516 29.996 22.0856 30 22.6116L29.984 22.6156C29.9747 22.6172 29.9654 22.6185 29.956 22.6196H14.044ZM22 10.6196C23.0609 10.6196 24.0783 10.1982 24.8284 9.44806C25.5786 8.69791 26 7.6805 26 6.61963C26 5.55876 25.5786 4.54135 24.8284 3.7912C24.0783 3.04106 23.0609 2.61963 22 2.61963C20.9391 2.61963 19.9217 3.04106 19.1716 3.7912C18.4214 4.54135 18 5.55876 18 6.61963C18 7.6805 18.4214 8.69791 19.1716 9.44806C19.9217 10.1982 20.9391 10.6196 22 10.6196ZM28 6.61963C28 7.40756 27.8448 8.18778 27.5433 8.91573C27.2418 9.64368 26.7998 10.3051 26.2426 10.8623C25.6855 11.4194 25.0241 11.8614 24.2961 12.1629C23.5681 12.4644 22.7879 12.6196 22 12.6196C21.2121 12.6196 20.4319 12.4644 19.7039 12.1629C18.9759 11.8614 18.3145 11.4194 17.7574 10.8623C17.2002 10.3051 16.7583 9.64368 16.4567 8.91573C16.1552 8.18778 16 7.40756 16 6.61963C16 5.02833 16.6321 3.50221 17.7574 2.37699C18.8826 1.25177 20.4087 0.619629 22 0.619629C23.5913 0.619629 25.1174 1.25177 26.2426 2.37699C27.3679 3.50221 28 5.02833 28 6.61963ZM12.4679 16.4783C13.0089 15.8782 12.8064 14.8699 12.0066 14.7554C11.8091 14.7271 11.6109 14.7038 11.412 14.6856C10.9427 14.641 10.4715 14.619 10 14.6196C2 14.6196 0 20.6196 0 22.6196C0 23.9536 0.666 24.6196 2 24.6196H8.85012C9.58465 24.6196 10.0833 23.8331 10.0174 23.1016C10.003 22.9417 9.99712 22.7809 10 22.6196C10 20.5996 10.754 18.5356 12.18 16.8116C12.273 16.6991 12.369 16.5879 12.4679 16.4783ZM9.84 16.6196C8.65631 18.3982 8.01688 20.4833 8 22.6196H2C2 22.0996 2.328 20.5596 3.52 19.1716C4.61 17.8996 6.504 16.6596 9.84 16.6216V16.6196ZM3 7.61963C3 6.02833 3.63214 4.50221 4.75736 3.37699C5.88258 2.25177 7.4087 1.61963 9 1.61963C10.5913 1.61963 12.1174 2.25177 13.2426 3.37699C14.3679 4.50221 15 6.02833 15 7.61963C15 9.21093 14.3679 10.7371 13.2426 11.8623C12.1174 12.9875 10.5913 13.6196 9 13.6196C7.4087 13.6196 5.88258 12.9875 4.75736 11.8623C3.63214 10.7371 3 9.21093 3 7.61963ZM9 3.61963C7.93913 3.61963 6.92172 4.04106 6.17157 4.7912C5.42143 5.54135 5 6.55876 5 7.61963C5 8.6805 5.42143 9.69791 6.17157 10.4481C6.92172 11.1982 7.93913 11.6196 9 11.6196C10.0609 11.6196 11.0783 11.1982 11.8284 10.4481C12.5786 9.69791 13 8.6805 13 7.61963C13 6.55876 12.5786 5.54135 11.8284 4.7912C11.0783 4.04106 10.0609 3.61963 9 3.61963Z" fill="#C0C1C2"/>
</svg>
