<svg width="24" height="24" viewBox="0 0 24 24" fill="none" xmlns="http://www.w3.org/2000/svg">
<path d="M1.26291 13.9019L7.54744 3.11959C7.70756 2.84487 8.12894 2.97532 8.10584 3.29245L7.62345 9.9135C7.61078 10.0873 7.74838 10.2353 7.92265 10.2353H12.4172C12.6612 10.2353 12.8031 10.5111 12.6613 10.7096L5.48521 20.7602C5.29409 21.0279 4.87368 20.8373 4.94904 20.5171L6.31321 14.7217C6.35753 14.5334 6.21465 14.3529 6.02119 14.3529H1.5221C1.29061 14.3529 1.14634 14.1019 1.26291 13.9019Z" fill="#FFF173"/>
<path d="M12.2629 13.9019L18.5474 3.11959C18.7076 2.84487 19.1289 2.97532 19.1058 3.29245L18.6234 9.9135C18.6108 10.0873 18.7484 10.2353 18.9227 10.2353H23.4172C23.6612 10.2353 23.8031 10.5111 23.6613 10.7096L16.4852 20.7602C16.2941 21.0279 15.8737 20.8373 15.949 20.5171L17.3132 14.7217C17.3575 14.5334 17.2147 14.3529 17.0212 14.3529H12.5221C12.2906 14.3529 12.1463 14.1019 12.2629 13.9019Z" fill="#FFF173"/>
</svg>
