<svg width="24" height="24" viewBox="0 0 24 24" fill="none" xmlns="http://www.w3.org/2000/svg">
<g opacity="0.7">
<path d="M21 12C21 16.9706 16.9915 21 12.0467 21C9.18626 21 6.63909 19.6515 5 17.5525" stroke="white" stroke-width="2" stroke-linecap="round"/>
<path d="M20.5713 8.71458C20.7655 8.39091 21.2345 8.39091 21.4287 8.71458L23.5457 12.2428C23.7456 12.576 23.5056 13 23.1169 13H18.8831C18.4944 13 18.2544 12.576 18.4543 12.2428L20.5713 8.71458Z" fill="white"/>
<path d="M3 11C3 6.02944 7.00851 2 11.9533 2C14.8137 2 17.3609 3.34846 19 5.44749" stroke="white" stroke-width="2" stroke-linecap="round"/>
<path d="M3.42875 14.2854C3.23454 14.6091 2.76545 14.6091 2.57125 14.2854L0.454349 10.7572C0.254392 10.424 0.494448 10 0.883095 10L5.11691 10C5.50555 10 5.74561 10.424 5.54565 10.7572L3.42875 14.2854Z" fill="white"/>
</g>
</svg>
