<svg width="24" height="24" viewBox="0 0 24 24" fill="none" xmlns="http://www.w3.org/2000/svg">
<path fill-rule="evenodd" clip-rule="evenodd" d="M5 12C5 15.866 8.13401 19 12 19C15.866 19 19 15.866 19 12C19 8.13401 15.866 5 12 5C8.13401 5 5 8.13401 5 12ZM13.6073 14.7194C13.8795 14.9922 13.8793 15.4339 13.6068 15.7064C13.3341 15.9791 12.8919 15.9791 12.6192 15.7064L9.6201 12.7073C9.22958 12.3168 9.22958 11.6836 9.6201 11.2931L12.6192 8.29394C12.8919 8.02124 13.3341 8.02124 13.6068 8.29394C13.8793 8.56643 13.8795 9.00815 13.6073 9.28094L10.894 12.0002L13.6073 14.7194Z" fill="white" fill-opacity="0.7"/>
</svg>
