<svg width="24" height="24" viewBox="0 0 24 24" fill="none" xmlns="http://www.w3.org/2000/svg">
<path fill-rule="evenodd" clip-rule="evenodd" d="M19 12C19 8.13401 15.866 5 12 5C8.13401 5 5 8.13401 5 12C5 15.866 8.13401 19 12 19C15.866 19 19 15.866 19 12ZM10.3927 9.2806C10.1205 9.00781 10.1207 8.56609 10.3932 8.2936C10.6659 8.0209 11.1081 8.0209 11.3808 8.2936L14.3799 11.2927C14.7704 11.6832 14.7704 12.3164 14.3799 12.7069L11.3808 15.7061C11.1081 15.9788 10.6659 15.9788 10.3932 15.7061C10.1207 15.4336 10.1205 14.9918 10.3927 14.7191L13.106 11.9998L10.3927 9.2806Z" fill="white" fill-opacity="0.7"/>
</svg>
