<svg width="24" height="24" viewBox="0 0 24 24" fill="none" xmlns="http://www.w3.org/2000/svg">
<g opacity="0.85">
<path d="M4 6C4 5.44772 4.44772 5 5 5H19C19.5523 5 20 5.44772 20 6V8.5H4V6Z" fill="white"/>
<path d="M7 4C7 3.44772 7.44772 3 8 3C8.55228 3 9 3.44772 9 4V5H7V4Z" fill="white"/>
<path d="M15 4C15 3.44772 15.4477 3 16 3C16.5523 3 17 3.44772 17 4V5H15V4Z" fill="white"/>
<path fill-rule="evenodd" clip-rule="evenodd" d="M20 9.5H4V19C4 19.5523 4.44772 20 5 20H19C19.5523 20 20 19.5523 20 19V9.5ZM9.17143 13.5858C8.7809 13.1952 8.7809 12.5621 9.17143 12.1716C9.56195 11.781 10.1951 11.781 10.5856 12.1716L11.9998 13.5857L13.414 12.1716C13.8045 11.7811 14.4376 11.7811 14.8282 12.1716C15.2187 12.5621 15.2187 13.1953 14.8282 13.5858L13.414 14.9999L14.8283 16.4142C15.2188 16.8047 15.2188 17.4379 14.8283 17.8284C14.4378 18.2189 13.8046 18.2189 13.4141 17.8284L11.9998 16.4142L10.5855 17.8284C10.195 18.219 9.56184 18.219 9.17131 17.8284C8.78079 17.4379 8.78079 16.8047 9.17131 16.4142L10.5856 14.9999L9.17143 13.5858Z" fill="white"/>
</g>
</svg>
