<svg width="48" height="48" viewBox="0 0 48 48" fill="none" xmlns="http://www.w3.org/2000/svg">
<g filter="url(#filter0_d)">
<path d="M28.9979 10C27.5926 9.99968 26.2068 10.3285 24.9516 10.9602C23.6963 11.5919 22.6064 12.5088 21.7693 13.6375C20.9322 14.7662 20.3712 16.0753 20.1311 17.4599C19.891 18.8445 19.9786 20.2661 20.3868 21.6107L10 31.9975V37.9969H15.9993L26.3862 27.61C27.6239 27.9857 28.9281 28.0902 30.2099 27.9163C31.4917 27.7423 32.7209 27.2941 33.8138 26.6022C34.9067 25.9102 35.8376 24.9908 36.543 23.9065C37.2484 22.8223 37.7118 21.5987 37.9016 20.3192C38.0914 19.0396 38.003 17.7342 37.6427 16.4919C37.2823 15.2496 36.6583 14.0996 35.8133 13.1202C34.9683 12.1408 33.9221 11.3552 32.7459 10.8167C31.5698 10.2783 30.2914 9.9997 28.9979 10ZM28.9979 25.9982C28.3095 25.9978 27.6249 25.8961 26.9661 25.6962L25.8192 25.3483L24.9723 26.1952L21.7917 29.3758L20.4128 27.998L18.999 29.4118L20.3778 30.7907L18.792 32.3765L17.4132 30.9977L15.9993 32.4115L17.3782 33.7903L15.1714 35.9971H11.9998V32.8254L21.8007 23.0245L22.6486 22.1776L22.3006 21.0308C21.8733 19.6219 21.901 18.1142 22.38 16.722C22.8589 15.3299 23.7647 14.1242 24.9684 13.2765C26.1721 12.4288 27.6124 11.9822 29.0846 12.0003C30.5567 12.0184 31.9856 12.5003 33.1681 13.3773C34.3506 14.2544 35.2264 15.482 35.671 16.8855C36.1155 18.2891 36.1062 19.797 35.6443 21.1949C35.1824 22.5928 34.2914 23.8095 33.0982 24.6719C31.9049 25.5342 30.4701 25.9983 28.9979 25.9982Z" fill="#C0C1C2"/>
<path d="M29.9978 19.9989C31.1023 19.9989 31.9976 19.1036 31.9976 17.9991C31.9976 16.8947 31.1023 15.9993 29.9978 15.9993C28.8934 15.9993 27.998 16.8947 27.998 17.9991C27.998 19.1036 28.8934 19.9989 29.9978 19.9989Z" fill="#C0C1C2"/>
</g>
<defs>
<filter id="filter0_d" x="0" y="0" width="47.999" height="47.9969" filterUnits="userSpaceOnUse" color-interpolation-filters="sRGB">
<feFlood flood-opacity="0" result="BackgroundImageFix"/>
<feColorMatrix in="SourceAlpha" type="matrix" values="0 0 0 0 0 0 0 0 0 0 0 0 0 0 0 0 0 0 127 0"/>
<feOffset/>
<feGaussianBlur stdDeviation="5"/>
<feColorMatrix type="matrix" values="0 0 0 0 0.752941 0 0 0 0 0.756863 0 0 0 0 0.760784 0 0 0 0.5 0"/>
<feBlend mode="normal" in2="BackgroundImageFix" result="effect1_dropShadow"/>
<feBlend mode="normal" in="SourceGraphic" in2="effect1_dropShadow" result="shape"/>
</filter>
</defs>
</svg>
