<svg width="34" height="24" viewBox="0 0 34 24" fill="none" xmlns="http://www.w3.org/2000/svg">
<path d="M0.262909 13.9019L6.54744 3.11959C6.70756 2.84487 7.12894 2.97532 7.10584 3.29245L6.62345 9.9135C6.61078 10.0873 6.74838 10.2353 6.92265 10.2353H11.4172C11.6612 10.2353 11.8031 10.5111 11.6613 10.7096L4.48521 20.7602C4.29409 21.0279 3.87368 20.8373 3.94904 20.5171L5.31321 14.7217C5.35753 14.5334 5.21465 14.3529 5.02119 14.3529H0.522096C0.290606 14.3529 0.146339 14.1019 0.262909 13.9019Z" fill="#FFF173"/>
<path d="M11.2629 13.9019L17.5474 3.11959C17.7076 2.84487 18.1289 2.97532 18.1058 3.29245L17.6234 9.9135C17.6108 10.0873 17.7484 10.2353 17.9227 10.2353H22.4172C22.6612 10.2353 22.8031 10.5111 22.6613 10.7096L15.4852 20.7602C15.2941 21.0279 14.8737 20.8373 14.949 20.5171L16.3132 14.7217C16.3575 14.5334 16.2147 14.3529 16.0212 14.3529H11.5221C11.2906 14.3529 11.1463 14.1019 11.2629 13.9019Z" fill="#FFF173"/>
<path d="M22.2629 13.9019L28.5474 3.11959C28.7076 2.84487 29.1289 2.97532 29.1058 3.29245L28.6234 9.9135C28.6108 10.0873 28.7484 10.2353 28.9227 10.2353H33.4172C33.6612 10.2353 33.8031 10.5111 33.6613 10.7096L26.4852 20.7602C26.2941 21.0279 25.8737 20.8373 25.949 20.5171L27.3132 14.7217C27.3575 14.5334 27.2147 14.3529 27.0212 14.3529H22.5221C22.2906 14.3529 22.1463 14.1019 22.2629 13.9019Z" fill="#FFF173"/>
</svg>
