<svg width="24" height="24" viewBox="0 0 24 24" fill="none" xmlns="http://www.w3.org/2000/svg">
<rect x="3" y="11" width="3" height="10" rx="1" fill="white"/>
<rect x="3" y="11" width="3" height="10" rx="1" fill="white"/>
<rect x="3" y="11" width="3" height="10" rx="1" fill="white"/>
<rect x="8" y="8" width="3" height="13" rx="1" fill="white"/>
<rect x="8" y="8" width="3" height="13" rx="1" fill="white"/>
<rect x="8" y="8" width="3" height="13" rx="1" fill="white"/>
<rect x="13" y="13" width="3" height="8" rx="1" fill="white"/>
<rect x="13" y="13" width="3" height="8" rx="1" fill="white"/>
<rect x="13" y="13" width="3" height="8" rx="1" fill="white"/>
<rect x="18" y="11" width="3" height="10" rx="1" fill="white"/>
<rect x="18" y="11" width="3" height="10" rx="1" fill="white"/>
<rect x="18" y="11" width="3" height="10" rx="1" fill="white"/>
<path d="M3.5 9L9.5 3.5L14.5 10.5L20.5 6.5" stroke="white" stroke-linecap="round"/>
</svg>
