<svg width="34" height="34" viewBox="0 0 34 34" fill="none" xmlns="http://www.w3.org/2000/svg">
<g filter="url(#filter0_d)">
<rect x="17" y="0.353553" width="17.8848" height="17.8848" rx="2.75" transform="rotate(45 17 0.353553)" stroke="#C0C1C2" stroke-width="0.5"/>
</g>
<g filter="url(#filter1_d)">
<path fill-rule="evenodd" clip-rule="evenodd" d="M20.3485 14.6233V12.9583H20.5455V14.7402L19.5242 15.2973H18.8835V14.0785H19.0805V15.1003H19.474L20.3485 14.6233Z" fill="white"/>
<path fill-rule="evenodd" clip-rule="evenodd" d="M17.5231 9.21823C17.5422 9.26916 17.5164 9.32592 17.4655 9.34502L14.7079 10.3791L14.6387 10.1947L17.3963 9.16059C17.4472 9.1415 17.504 9.1673 17.5231 9.21823Z" fill="white"/>
<path fill-rule="evenodd" clip-rule="evenodd" d="M16.8331 7.75162C16.8531 7.80223 16.8282 7.85942 16.7776 7.87935L13.9339 8.99962L13.8617 8.81635L16.7054 7.69609C16.756 7.67615 16.8132 7.70102 16.8331 7.75162Z" fill="white"/>
<path fill-rule="evenodd" clip-rule="evenodd" d="M18.9788 10.4142L18.4617 9.29397L18.6406 9.21143L19.1576 10.3317L18.9788 10.4142Z" fill="white"/>
<path fill-rule="evenodd" clip-rule="evenodd" d="M20.1004 10.417L19.0663 8.34883L19.2425 8.26074L20.2765 10.3289L20.1004 10.417Z" fill="white"/>
<path fill-rule="evenodd" clip-rule="evenodd" d="M16.111 12.1704H16.84V16.9223H16.643V12.3674H16.1655L13.1495 14.177H12.3712V16.9223H12.1743V13.9801H13.0949L16.111 12.1704Z" fill="white"/>
<path fill-rule="evenodd" clip-rule="evenodd" d="M21.6288 17.0332H12.3712V17.6733H21.6288V17.0332ZM12.1743 16.8362V17.8703H21.8258V16.8362H12.1743Z" fill="white"/>
<path fill-rule="evenodd" clip-rule="evenodd" d="M14.7472 13.8938H16.6553V14.0908H14.9441V16.836H14.7472V13.8938Z" fill="white"/>
<path fill-rule="evenodd" clip-rule="evenodd" d="M16.1136 14.7924H15.4735V16.122H16.1136V14.7924ZM15.2765 14.5955V16.3189H16.3106V14.5955H15.2765Z" fill="white"/>
<path fill-rule="evenodd" clip-rule="evenodd" d="M13.4669 10.6069C13.7864 10.6069 14.0455 10.3478 14.0455 10.0283C14.0455 9.7087 13.7864 9.44966 13.4669 9.44966C13.1473 9.44966 12.8883 9.7087 12.8883 10.0283C12.8883 10.3478 13.1473 10.6069 13.4669 10.6069ZM13.4669 10.8038C13.8952 10.8038 14.2425 10.4566 14.2425 10.0283C14.2425 9.59992 13.8952 9.25269 13.4669 9.25269C13.0385 9.25269 12.6913 9.59992 12.6913 10.0283C12.6913 10.4566 13.0385 10.8038 13.4669 10.8038Z" fill="white"/>
<path fill-rule="evenodd" clip-rule="evenodd" d="M17.9479 8.7111C18.2675 8.7111 18.5265 8.45205 18.5265 8.1325C18.5265 7.81295 18.2675 7.5539 17.9479 7.5539C17.6284 7.5539 17.3693 7.81295 17.3693 8.1325C17.3693 8.45205 17.6284 8.7111 17.9479 8.7111ZM17.9479 8.90807C18.3763 8.90807 18.7235 8.56084 18.7235 8.1325C18.7235 7.70417 18.3763 7.35693 17.9479 7.35693C17.5196 7.35693 17.1724 7.70417 17.1724 8.1325C17.1724 8.56084 17.5196 8.90807 17.9479 8.90807Z" fill="white"/>
<path fill-rule="evenodd" clip-rule="evenodd" d="M13.4669 11.1239C14.072 11.1239 14.5625 10.6333 14.5625 10.0282C14.5625 9.4231 14.072 8.93257 13.4669 8.93257C12.8618 8.93257 12.3712 9.4231 12.3712 10.0282C12.3712 10.6333 12.8618 11.1239 13.4669 11.1239ZM13.4669 11.3208C14.1808 11.3208 14.7595 10.7421 14.7595 10.0282C14.7595 9.31432 14.1808 8.7356 13.4669 8.7356C12.753 8.7356 12.1743 9.31432 12.1743 10.0282C12.1743 10.7421 12.753 11.3208 13.4669 11.3208Z" fill="white"/>
<path fill-rule="evenodd" clip-rule="evenodd" d="M17.9479 9.2281C18.553 9.2281 19.0436 8.73756 19.0436 8.13246C19.0436 7.52735 18.553 7.03681 17.9479 7.03681C17.3428 7.03681 16.8523 7.52735 16.8523 8.13246C16.8523 8.73756 17.3428 9.2281 17.9479 9.2281ZM17.9479 9.42507C18.6618 9.42507 19.2405 8.84635 19.2405 8.13246C19.2405 7.41857 18.6618 6.83984 17.9479 6.83984C17.234 6.83984 16.6553 7.41857 16.6553 8.13246C16.6553 8.84635 17.234 9.42507 17.9479 9.42507Z" fill="white"/>
<path fill-rule="evenodd" clip-rule="evenodd" d="M14.2442 13.3536L12.9515 11.1992L13.1204 11.0979L14.4131 13.2523L14.2442 13.3536Z" fill="white"/>
<path fill-rule="evenodd" clip-rule="evenodd" d="M15.7973 12.4949L14.5046 10.5129L14.6696 10.4053L15.9622 12.3873L15.7973 12.4949Z" fill="white"/>
<path fill-rule="evenodd" clip-rule="evenodd" d="M20.9394 10.4838H18.5758V12.8475H20.9394V10.4838ZM18.3788 10.2869V13.0444H21.1364V10.2869H18.3788Z" fill="white"/>
</g>
<defs>
<filter id="filter0_d" x="0" y="0" width="34" height="34" filterUnits="userSpaceOnUse" color-interpolation-filters="sRGB">
<feFlood flood-opacity="0" result="BackgroundImageFix"/>
<feColorMatrix in="SourceAlpha" type="matrix" values="0 0 0 0 0 0 0 0 0 0 0 0 0 0 0 0 0 0 127 0"/>
<feOffset dy="4"/>
<feGaussianBlur stdDeviation="2"/>
<feColorMatrix type="matrix" values="0 0 0 0 0 0 0 0 0 0 0 0 0 0 0 0 0 0 0.5 0"/>
<feBlend mode="normal" in2="BackgroundImageFix" result="effect1_dropShadow"/>
<feBlend mode="normal" in="SourceGraphic" in2="effect1_dropShadow" result="shape"/>
</filter>
<filter id="filter1_d" x="8.17426" y="6.83984" width="17.6515" height="19.0304" filterUnits="userSpaceOnUse" color-interpolation-filters="sRGB">
<feFlood flood-opacity="0" result="BackgroundImageFix"/>
<feColorMatrix in="SourceAlpha" type="matrix" values="0 0 0 0 0 0 0 0 0 0 0 0 0 0 0 0 0 0 127 0"/>
<feOffset dy="4"/>
<feGaussianBlur stdDeviation="2"/>
<feColorMatrix type="matrix" values="0 0 0 0 0 0 0 0 0 0 0 0 0 0 0 0 0 0 0.5 0"/>
<feBlend mode="normal" in2="BackgroundImageFix" result="effect1_dropShadow"/>
<feBlend mode="normal" in="SourceGraphic" in2="effect1_dropShadow" result="shape"/>
</filter>
</defs>
</svg>
