<svg width="22" height="20" viewBox="0 0 22 20" fill="none" xmlns="http://www.w3.org/2000/svg">
<rect x="4.88892" y="9.77783" width="2.44444" height="2.44444" fill="white"/>
<rect x="9.77777" y="9.77783" width="2.44444" height="2.44444" fill="white"/>
<rect x="14.6667" y="9.77783" width="2.44444" height="2.44444" fill="white"/>
<rect x="4.88892" y="14.6666" width="2.44444" height="2.44444" fill="white"/>
<rect x="9.77777" y="14.6666" width="2.44444" height="2.44444" fill="white"/>
<rect x="14.6667" y="14.6666" width="2.44444" height="2.44444" fill="white"/>
<path d="M20.1667 1.83333H16.5V0H14.6667V1.83333H7.33334V0H5.5V1.83333H1.83334C0.825004 1.83333 4.45843e-06 2.65833 4.45843e-06 3.66667L0 17.9667C0 18.975 0.825 19.8 1.83333 19.8H20.1667C21.175 19.8 22 18.975 22 17.9667L22 3.66667C22 2.65833 21.175 1.83333 20.1667 1.83333ZM20.46 17.76C20.46 18.0361 20.2361 18.26 19.96 18.26H2.04C1.76386 18.26 1.54 18.0361 1.54 17.76L1.54 15.4V8.8H11H20.46L20.46 17.76ZM20.46 7.33333H1.54V3.8C1.54 3.52386 1.76386 3.3 2.04 3.3H5.5V5.13333H7.33334V3.3H11H14.6667V5.13333H16.5V3.3H19.96C20.2361 3.3 20.46 3.52386 20.46 3.8V7.33333Z" fill="white"/>
</svg>
