<svg width="22" height="19" viewBox="0 0 22 19" fill="none" xmlns="http://www.w3.org/2000/svg">
<path d="M1 18.3925L6.91117 0.699951C6.91117 0.699951 9.4681 2.45278 14.0321 2.45278C14.0321 2.45278 18.4586 2.28845 21.4004 4.47948L17.9362 15.4346C17.9362 15.4346 15.9017 13.6818 10.4579 13.6544C10.4579 13.6544 5.72894 13.5996 3.30948 11.4634" stroke="#3B4044" stroke-miterlimit="10" stroke-linecap="round" stroke-linejoin="round"/>
<path d="M5.86583 3.84961C5.86583 3.84961 7.43299 4.89035 9.1926 5.24639L8.01036 8.99854C8.01036 8.99854 6.05829 8.58772 4.68359 7.46482L5.86583 3.84961Z" fill="#3B4044"/>
<path d="M12.6849 5.73947L11.5576 9.54637C11.5576 9.54637 13.3997 9.40944 15.3793 9.84764L16.5615 6.15029C16.5615 6.1229 14.8844 5.60253 12.6849 5.73947Z" fill="#3B4044"/>
<path d="M10.1833 2.01465L9.16602 5.27381C9.16602 5.27381 10.2383 5.57508 11.393 5.60246C11.393 5.60246 12.4103 5.7394 12.6852 5.7394L13.7575 2.42547C13.7575 2.42547 10.8431 2.50763 10.1833 2.01465Z" fill="#3B4044"/>
<path d="M16.5605 6.12277L17.6328 2.80884C17.6328 2.80884 20.4647 3.43876 21.427 4.45211L20.3822 7.76604C20.3822 7.79342 18.5401 6.36926 16.5605 6.12277Z" fill="#3B4044"/>
<path d="M7.98361 9.02588C7.98361 9.02588 9.77071 9.51886 11.5578 9.54625L10.4306 13.6544C10.4306 13.6544 8.34103 13.5997 6.69141 13.1067L7.98361 9.02588Z" fill="#3B4044"/>
<path d="M15.3793 9.84741L14.0596 13.983C14.0596 13.983 16.6165 14.5307 17.9362 15.4345L19.2559 11.3264C19.2284 11.3264 18.0187 10.4499 15.3793 9.84741Z" fill="#3B4044"/>
</svg>
