<svg width="41" height="38" viewBox="0 0 41 38" fill="none" xmlns="http://www.w3.org/2000/svg">
<g filter="url(#filter0_d_1657_1253)">
<path d="M21.2271 10.7093C21.1034 10.4937 20.925 10.3146 20.7099 10.1901C20.4948 10.0656 20.2507 10 20.0021 10C19.7536 10 19.5095 10.0656 19.2944 10.1901C19.0793 10.3146 18.9009 10.4937 18.7771 10.7093L10.2059 25.293C9.63463 26.2655 10.3196 27.5018 11.4309 27.5018H28.5721C29.6834 27.5018 30.3696 26.2643 29.7971 25.293L21.2271 10.7093ZM19.9996 15.0018C20.6684 15.0018 21.1921 15.5793 21.1246 16.2455L20.6871 20.6293C20.6724 20.8015 20.5936 20.9619 20.4663 21.0788C20.339 21.1957 20.1725 21.2606 19.9996 21.2606C19.8268 21.2606 19.6602 21.1957 19.5329 21.0788C19.4056 20.9619 19.3268 20.8015 19.3121 20.6293L18.8746 16.2455C18.8589 16.0883 18.8763 15.9296 18.9257 15.7795C18.9751 15.6294 19.0553 15.4913 19.1613 15.3742C19.2673 15.257 19.3966 15.1633 19.541 15.0992C19.6854 15.035 19.8416 15.0019 19.9996 15.0018ZM20.0021 22.5018C20.3336 22.5018 20.6516 22.6335 20.886 22.8679C21.1204 23.1023 21.2521 23.4202 21.2521 23.7518C21.2521 24.0833 21.1204 24.4012 20.886 24.6357C20.6516 24.8701 20.3336 25.0018 20.0021 25.0018C19.6706 25.0018 19.3527 24.8701 19.1182 24.6357C18.8838 24.4012 18.7521 24.0833 18.7521 23.7518C18.7521 23.4202 18.8838 23.1023 19.1182 22.8679C19.3527 22.6335 19.6706 22.5018 20.0021 22.5018Z" fill="#FF5F57"/>
</g>
<defs>
<filter id="filter0_d_1657_1253" x="0" y="0" width="40.0035" height="37.502" filterUnits="userSpaceOnUse" color-interpolation-filters="sRGB">
<feFlood flood-opacity="0" result="BackgroundImageFix"/>
<feColorMatrix in="SourceAlpha" type="matrix" values="0 0 0 0 0 0 0 0 0 0 0 0 0 0 0 0 0 0 127 0" result="hardAlpha"/>
<feOffset/>
<feGaussianBlur stdDeviation="5"/>
<feComposite in2="hardAlpha" operator="out"/>
<feColorMatrix type="matrix" values="0 0 0 0 1 0 0 0 0 0.372549 0 0 0 0 0.341176 0 0 0 0.7 0"/>
<feBlend mode="normal" in2="BackgroundImageFix" result="effect1_dropShadow_1657_1253"/>
<feBlend mode="normal" in="SourceGraphic" in2="effect1_dropShadow_1657_1253" result="shape"/>
</filter>
</defs>
</svg>
