<svg width="19" height="24" viewBox="0 0 19 24" fill="none" xmlns="http://www.w3.org/2000/svg">
<path fill-rule="evenodd" clip-rule="evenodd" d="M0.890625 0C0.654417 5.03012e-09 0.427882 0.094821 0.260858 0.263604C0.0938333 0.432387 0 0.661305 0 0.9C0 1.13869 0.0938333 1.36761 0.260858 1.5364C0.427882 1.70518 0.654417 1.8 0.890625 1.8H1.78125V5.3784C1.78125 6.34095 2.02247 7.28783 2.48241 8.13073C2.94235 8.97363 3.60603 9.6851 4.41156 10.1988L6.83881 11.7468C6.88099 11.7739 6.91572 11.8113 6.93978 11.8556C6.96384 11.8998 6.97646 11.9495 6.97646 12C6.97646 12.0505 6.96384 12.1002 6.93978 12.1444C6.91572 12.1887 6.88099 12.2261 6.83881 12.2532L4.41156 13.8012C3.60603 14.3149 2.94235 15.0264 2.48241 15.8693C2.02247 16.7122 1.78125 17.659 1.78125 18.6216V22.2H0.890625C0.654417 22.2 0.427882 22.2948 0.260858 22.4636C0.0938333 22.6324 0 22.8613 0 23.1C0 23.3387 0.0938333 23.5676 0.260858 23.7364C0.427882 23.9052 0.654417 24 0.890625 24H18.1094C18.3456 24 18.5721 23.9052 18.7391 23.7364C18.9062 23.5676 19 23.3387 19 23.1C19 22.8613 18.9062 22.6324 18.7391 22.4636C18.5721 22.2948 18.3456 22.2 18.1094 22.2H17.2188V18.6216C17.2188 17.659 16.9775 16.7122 16.5176 15.8693C16.0577 15.0264 15.394 14.3149 14.5884 13.8012L12.1612 12.2532C12.119 12.2261 12.0843 12.1887 12.0602 12.1444C12.0362 12.1002 12.0235 12.0505 12.0235 12C12.0235 11.9495 12.0362 11.8998 12.0602 11.8556C12.0843 11.8113 12.119 11.7739 12.1612 11.7468L14.5884 10.1988C15.394 9.6851 16.0577 8.97363 16.5176 8.13073C16.9775 7.28783 17.2188 6.34095 17.2188 5.3784V1.8H18.1094C18.3456 1.8 18.5721 1.70518 18.7391 1.5364C18.9062 1.36761 19 1.13869 19 0.9C19 0.661305 18.9062 0.432387 18.7391 0.263604C18.5721 0.094821 18.3456 5.03012e-09 18.1094 0H0.890625ZM15.4375 1.8H3.5625V5.3784C3.56265 6.03694 3.72783 6.68473 4.04262 7.26135C4.35741 7.83796 4.81157 8.32464 5.36275 8.676L7.79 10.224C8.0868 10.4133 8.33134 10.6754 8.50081 10.9859C8.67028 11.2965 8.75916 11.6454 8.75916 12C8.75916 12.3546 8.67028 12.7035 8.50081 13.0141C8.33134 13.3246 8.0868 13.5867 7.79 13.776L5.36275 15.324C4.81157 15.6754 4.35741 16.162 4.04262 16.7387C3.72783 17.3153 3.56265 17.9631 3.5625 18.6216V22.2H15.4375V18.6216C15.4373 17.9631 15.2722 17.3153 14.9574 16.7387C14.6426 16.162 14.1884 15.6754 13.6372 15.324L11.21 13.776C10.9132 13.5867 10.6687 13.3246 10.4992 13.0141C10.3297 12.7035 10.2408 12.3546 10.2408 12C10.2408 11.6454 10.3297 11.2965 10.4992 10.9859C10.6687 10.6754 10.9132 10.4133 11.21 10.224L13.6372 8.676C14.1884 8.32464 14.6426 7.83796 14.9574 7.26135C15.2722 6.68473 15.4373 6.03694 15.4375 5.3784V1.8Z" fill="white"/>
<path d="M9.50003 9C7.00003 9 4.50001 6.5 5.00003 4.5H14C14 7 12 9 9.50003 9Z" fill="white"/>
</svg>
