<svg width="36" height="36" viewBox="0 0 36 36" fill="none" xmlns="http://www.w3.org/2000/svg">
<path d="M12.0001 6.92308C11.0208 6.92308 10.0816 7.3121 9.38916 8.00456C8.6967 8.69702 8.30768 9.6362 8.30768 10.6155V25.3851C8.30768 26.3644 8.6967 27.3036 9.38916 27.996C10.0816 28.6885 11.0208 29.0775 12.0001 29.0775H18.1541C18.4805 29.0775 18.7936 28.9478 19.0244 28.717C19.2552 28.4862 19.3849 28.1731 19.3849 27.8467C19.3849 27.5203 19.2552 27.2072 19.0244 26.9764C18.7936 26.7456 18.4805 26.6159 18.1541 26.6159H12.0001C11.6737 26.6159 11.3606 26.4862 11.1298 26.2554C10.899 26.0246 10.7693 25.7115 10.7693 25.3851V10.6155C10.7693 10.2891 10.899 9.976 11.1298 9.74518C11.3606 9.51436 11.6737 9.38468 12.0001 9.38468H18.1541C18.4805 9.38468 18.7936 9.25501 19.0244 9.02419C19.2552 8.79337 19.3849 8.48031 19.3849 8.15388C19.3849 7.82745 19.2552 7.51439 19.0244 7.28357C18.7936 7.05275 18.4805 6.92308 18.1541 6.92308H12.0001Z" fill="#FF5F57"/>
<path d="M23.438 12.2066C23.6688 11.9759 23.9818 11.8463 24.3082 11.8463C24.6345 11.8463 24.9475 11.9759 25.1783 12.2066L30.1016 17.1298C30.3323 17.3607 30.4619 17.6737 30.4619 18C30.4619 18.3264 30.3323 18.6394 30.1016 18.8702L25.1783 23.7934C24.9462 24.0176 24.6353 24.1417 24.3126 24.1389C23.9899 24.1361 23.6812 24.0066 23.453 23.7784C23.2248 23.5502 23.0953 23.2415 23.0925 22.9188C23.0897 22.5961 23.2138 22.2852 23.438 22.0531L26.2602 19.2308H16.9234C16.5969 19.2308 16.2839 19.1012 16.0531 18.8703C15.8222 18.6395 15.6926 18.3265 15.6926 18C15.6926 17.6736 15.8222 17.3605 16.0531 17.1297C16.2839 16.8989 16.5969 16.7692 16.9234 16.7692H26.2602L23.438 13.947C23.2073 13.7162 23.0776 13.4032 23.0776 13.0768C23.0776 12.7505 23.2073 12.4375 23.438 12.2066Z" fill="#FF5F57"/>
</svg>
