<svg width="40" height="40" viewBox="0 0 40 40" fill="none" xmlns="http://www.w3.org/2000/svg">
<g filter="url(#filter0_d)">
<path d="M20 10C14.4737 10 10 14.4737 10 20C10 25.5263 14.4737 30 20 30C25.5263 30 30 25.5263 30 20C30 14.4737 25.5263 10 20 10ZM25.4386 21.3158H14.8246C14.1228 21.3158 13.5088 20.7018 13.5088 20C13.5088 19.2982 14.1228 18.6842 14.8246 18.6842H25.5263C26.2281 18.6842 26.8421 19.2982 26.8421 20C26.8421 20.7018 26.2281 21.3158 25.4386 21.3158Z" fill="#FF5F57"/>
</g>
<defs>
<filter id="filter0_d" x="0" y="0" width="40" height="40" filterUnits="userSpaceOnUse" color-interpolation-filters="sRGB">
<feFlood flood-opacity="0" result="BackgroundImageFix"/>
<feColorMatrix in="SourceAlpha" type="matrix" values="0 0 0 0 0 0 0 0 0 0 0 0 0 0 0 0 0 0 127 0" result="hardAlpha"/>
<feOffset/>
<feGaussianBlur stdDeviation="5"/>
<feComposite in2="hardAlpha" operator="out"/>
<feColorMatrix type="matrix" values="0 0 0 0 1 0 0 0 0 0.372549 0 0 0 0 0.341176 0 0 0 0.7 0"/>
<feBlend mode="normal" in2="BackgroundImageFix" result="effect1_dropShadow"/>
<feBlend mode="normal" in="SourceGraphic" in2="effect1_dropShadow" result="shape"/>
</filter>
</defs>
</svg>
