<svg width="15" height="20" viewBox="0 0 15 20" fill="none" xmlns="http://www.w3.org/2000/svg">
<path d="M13.5 20C13.5 20 15 20 15 18.5C15 17 12.6562 12.5 7.5 12.5C2.34375 12.5 0 17 0 18.5C0 20 1.5 20 1.5 20H13.5Z" fill="white"/>
<path d="M2.5 7.5C3.31287 9.94611 5.24538 11.6667 7.5 11.6667C9.75462 11.6667 11.6871 9.94611 12.5 7.5H2.5Z" fill="white"/>
<path d="M3.9708 3.51509H5.12322H6.33285V0.118741C6.70999 0.0408759 7.10034 0 7.50008 0C7.89982 0 8.29018 0.0408759 8.66732 0.118741V3.51509H9.73289H10.8853V1.10012C12.3433 2.15798 13.3022 3.881 13.3334 5.83333H1.66675C1.69693 3.94605 2.59403 2.27305 3.9708 1.20805V3.51509Z" fill="white"/>
<rect x="0.833252" y="5.83331" width="13.3333" height="0.833333" fill="white"/>
</svg>
