<svg width="15" height="20" viewBox="0 0 15 20" fill="none" xmlns="http://www.w3.org/2000/svg">
<path d="M13.5 20C13.5 20 15 20 15 18.5C15 17 12.6562 12.5 7.5 12.5C2.34375 12.5 0 17 0 18.5C0 20 1.5 20 1.5 20H13.5Z" fill="#FFDE67"/>
<path d="M2.5 7.5C3.31287 9.94611 5.24538 11.6667 7.5 11.6667C9.75462 11.6667 11.6871 9.94611 12.5 7.5H2.5Z" fill="#FFDE67"/>
<path d="M3.97074 3.51509H5.12316H6.33278V0.118741C6.70992 0.0408759 7.10028 0 7.50002 0C7.89976 0 8.29012 0.0408759 8.66726 0.118741V3.51509H9.73283H10.8853V1.10012C12.3432 2.15798 13.3021 3.881 13.3334 5.83333H1.66669C1.69687 3.94605 2.59397 2.27305 3.97074 1.20805V3.51509Z" fill="#FFDE67"/>
<rect x="0.833313" y="5.83331" width="13.3333" height="0.833333" fill="#FFDE67"/>
</svg>
