<svg width="22" height="19" viewBox="0 0 22 19" fill="none" xmlns="http://www.w3.org/2000/svg">
<path d="M2.5 7.66675C2.5 7.39061 2.72386 7.16675 3 7.16675H16.381C16.6571 7.16675 16.881 7.39061 16.881 7.66675V10.3096C16.881 14.2808 13.6617 17.5001 9.69048 17.5001C5.71929 17.5001 2.5 14.2808 2.5 10.3096V7.66675Z" stroke="white" stroke-linejoin="round"/>
<path d="M16.9755 8.28564H17.9874C19.2169 8.28564 20.2136 9.28234 20.2136 10.5118V10.5118C20.2136 11.7413 19.2169 12.738 17.9874 12.738H16.166" stroke="white"/>
<path d="M2.80908 18H16.571" stroke="white" stroke-linecap="round"/>
<path d="M7.51876 1C7.73659 1.22515 8.68355 2.11431 7.73659 3.2044C7.51869 3.45524 6.78564 4.2381 7.73659 5.04762" stroke="white" stroke-linecap="round"/>
<path d="M11.091 1C11.3089 1.22515 12.2558 2.11431 11.3089 3.2044C11.091 3.45524 10.3579 4.2381 11.3089 5.04762" stroke="white" stroke-linecap="round"/>
</svg>
