<svg width="20" height="20" viewBox="0 0 20 20" fill="none" xmlns="http://www.w3.org/2000/svg">
<g clip-path="url(#clip0_1681_1001)">
<path d="M19 1C18.3 0.3 17.4 0 16.5 0C15.6 0 14.6 0.4 14 1L12 3C11.8 2.8 11.6 2.7 11.4 2.6C11.2 2.5 11 2.5 10.7 2.5C10.4 2.5 10.2 2.5 10 2.6C9.8 2.7 9.6 2.8 9.5 3L8.9 3.6C8.6 3.9 8.4 4.3 8.4 4.8C8.4 5.3 8.6 5.7 8.9 6L2.1 12.8C1.9 13 1.7 13.3 1.6 13.5C1.5 13.8 1.4 14.1 1.4 14.4V15.1L0.0999961 17.4C-0.700004 18.9 0.899996 20.6 2.5 19.8L4.8 18.5H5.5C6.1 18.5 6.7 18.3 7.1 17.8L8 17.1C7.8 16.6 7.6 16 7.6 15.4L6.2 16.8C6.1 16.9 6 16.9 5.9 17C5.8 17.1 5.7 17 5.6 17H4.7C4.6 17 4.5 17 4.3 17.1L1.8 18.5C1.8 18.5 1.7 18.5 1.6 18.5C1.5 18.5 1.5 18.5 1.5 18.4L1.4 18.3C1.4 18.2 1.4 18.2 1.4 18.1L2.8 15.6C3 15.5 3 15.4 3 15.3V14.4C3 14.2 3.1 14 3.2 13.9L10 7.1L11.2 8.3C12.2 7.8 13.3 7.5 14.5 7.5C15.4 7.5 16.3 7.7 17.1 8L19 6.1C19.7 5.4 20 4.5 20 3.6C20 2.6 19.6 1.7 19 1Z" fill="#3B4044"/>
<path d="M3.00001 12.2998C2.60001 12.2998 2.20001 12.5998 2.20001 13.0998C2.20001 13.5998 2.50001 13.8998 3.00001 13.8998H7.50001C7.60001 13.3998 7.70001 12.8998 7.80001 12.3998H3.00001V12.2998Z" fill="#3B4044"/>
<path d="M14.5 9C11.5 9 9 11.5 9 14.5C9 17.5 11.5 20 14.5 20C17.5 20 20 17.5 20 14.5C20 11.5 17.5 9 14.5 9ZM17.9 12.8L14.6 17.1C14.5 17.3 14.3 17.4 14.1 17.4C14.1 17.4 14.1 17.4 14 17.4C13.8 17.4 13.6 17.3 13.5 17.2L11.2 14.9C10.9 14.6 10.9 14.1 11.2 13.8C11.5 13.5 12 13.5 12.3 13.8L14 15.5L16.7 11.9C17 11.6 17.4 11.5 17.8 11.8C18.1 12 18.1 12.5 17.9 12.8Z" fill="#3B4044"/>
</g>
<defs>
<clipPath id="clip0_1681_1001">
<rect width="20" height="20" fill="white"/>
</clipPath>
</defs>
</svg>
