<svg width="16" height="16" viewBox="0 0 16 16" fill="none" xmlns="http://www.w3.org/2000/svg">
<path d="M15.165 0.834985C14.6304 0.300352 13.9052 0 13.1492 0C12.3931 0 11.6679 0.300352 11.1333 0.834985L9.56362 2.40465L9.55327 2.39429C9.42379 2.2648 9.27006 2.16207 9.10088 2.09199C8.9317 2.02191 8.75037 1.98584 8.56725 1.98584C8.38412 1.98584 8.20279 2.02191 8.03361 2.09199C7.86443 2.16207 7.71071 2.2648 7.58123 2.39429L7.11511 2.86121C6.85382 3.12267 6.70705 3.47719 6.70705 3.84683C6.70705 4.21647 6.85382 4.57098 7.11511 4.83245L7.12467 4.84281L1.72247 10.245C1.556 10.4115 1.42395 10.6091 1.33385 10.8266C1.24376 11.0441 1.19739 11.2773 1.19739 11.5127V12.0609L0.177511 13.9309C-0.488601 15.1524 0.847606 16.4886 2.06908 15.8225L3.93913 14.8026H4.48731C4.96251 14.8024 5.41818 14.6135 5.7542 14.2775L11.1572 8.87533L11.1668 8.88489C11.2962 9.01439 11.45 9.11711 11.6191 9.18719C11.7883 9.25727 11.9697 9.29334 12.1528 9.29334C12.3359 9.29334 12.5172 9.25727 12.6864 9.18719C12.8556 9.11711 13.0093 9.01439 13.1388 8.88489L13.6057 8.41877C13.7352 8.28929 13.8379 8.13557 13.908 7.96639C13.9781 7.79721 14.0142 7.61588 14.0142 7.43275C14.0142 7.24963 13.9781 7.0683 13.908 6.89912C13.8379 6.72994 13.7352 6.57621 13.6057 6.44673L13.5961 6.43637L15.1658 4.86671C15.7004 4.33207 16.0008 3.60694 16.0008 2.85085C16.0008 2.09476 15.7004 1.36963 15.1658 0.834985H15.165ZM7.97006 5.6874L10.3126 8.02994L4.91041 13.4321C4.85487 13.4877 4.78892 13.5318 4.71632 13.5619C4.64372 13.592 4.5659 13.6075 4.48731 13.6074H3.78694C3.68696 13.6076 3.58861 13.6328 3.5009 13.6807L1.49698 14.7739C1.45914 14.7973 1.41421 14.8063 1.3703 14.7994C1.32843 14.7911 1.29008 14.7703 1.26034 14.7397C1.22973 14.7099 1.20888 14.6716 1.20058 14.6297C1.19394 14.5857 1.20327 14.5408 1.22687 14.503L2.32006 12.4991C2.36776 12.4113 2.39269 12.313 2.39257 12.2131V11.5127C2.39271 11.3542 2.45576 11.2024 2.56786 11.0904L7.97006 5.6882V5.6874Z" fill="white"/>
<path fill-rule="evenodd" clip-rule="evenodd" d="M1.80005 10.3998C1.80005 10.0684 2.06868 9.7998 2.40005 9.7998H8.80005C9.13142 9.7998 9.40005 10.0684 9.40005 10.3998C9.40005 10.7312 9.13142 10.9998 8.80005 10.9998H2.40005C2.06868 10.9998 1.80005 10.7312 1.80005 10.3998Z" fill="white"/>
</svg>
