<svg width="16" height="16" viewBox="0 0 16 16" fill="none" xmlns="http://www.w3.org/2000/svg">
<g clip-path="url(#clip0_1681_1630)">
<path d="M15.1999 0.8C14.6399 0.24 13.9199 0 13.1999 0C12.4799 0 11.6799 0.32 11.1999 0.8L9.5999 2.4C9.4399 2.24 9.2799 2.16 9.1199 2.08C8.9599 2 8.7999 2 8.5599 2C8.3199 2 8.1599 2 7.9999 2.08C7.8399 2.16 7.6799 2.24 7.5999 2.4L7.1199 2.88C6.8799 3.12 6.7199 3.44 6.7199 3.84C6.7199 4.24 6.8799 4.56 7.1199 4.8L1.6799 10.24C1.5199 10.4 1.3599 10.64 1.2799 10.8C1.1999 11.04 1.1199 11.28 1.1199 11.52V12.08L0.0798992 13.92C-0.560101 15.12 0.719899 16.48 1.9999 15.84L3.8399 14.8H4.3999C4.8799 14.8 5.3599 14.64 5.6799 14.24L6.3999 13.68C6.2399 13.28 6.0799 12.8 6.0799 12.32L4.9599 13.44C4.8799 13.52 4.7999 13.52 4.7199 13.6C4.6399 13.68 4.5599 13.6 4.4799 13.6H3.7599C3.6799 13.6 3.5999 13.6 3.4399 13.68L1.4399 14.8C1.4399 14.8 1.3599 14.8 1.2799 14.8C1.1999 14.8 1.1999 14.8 1.1999 14.72L1.1199 14.64C1.1199 14.56 1.1199 14.56 1.1199 14.48L2.2399 12.48C2.3999 12.4 2.3999 12.32 2.3999 12.24V11.52C2.3999 11.36 2.4799 11.2 2.5599 11.12L7.9999 5.68L8.9599 6.64C9.7599 6.24 10.6399 6 11.5999 6C12.3199 6 13.0399 6.16 13.6799 6.4L15.1999 4.88C15.7599 4.32 15.9999 3.6 15.9999 2.88C15.9999 2.08 15.6799 1.36 15.1999 0.8Z" fill="white"/>
<path d="M2.40001 9.83984C2.08001 9.83984 1.76001 10.0798 1.76001 10.4798C1.76001 10.8798 2.00001 11.1198 2.40001 11.1198H6.00001C6.08001 10.7198 6.16001 10.3198 6.24001 9.91984H2.40001V9.83984Z" fill="white"/>
<path d="M11.6 7.2002C9.19995 7.2002 7.19995 9.2002 7.19995 11.6002C7.19995 14.0002 9.19995 16.0002 11.6 16.0002C14 16.0002 16 14.0002 16 11.6002C16 9.2002 14 7.2002 11.6 7.2002ZM14.32 10.2402L11.68 13.6802C11.6 13.8402 11.44 13.9202 11.28 13.9202C11.28 13.9202 11.28 13.9202 11.2 13.9202C11.04 13.9202 10.88 13.8402 10.8 13.7602L8.95995 11.9202C8.71995 11.6802 8.71995 11.2802 8.95995 11.0402C9.19995 10.8002 9.59995 10.8002 9.83995 11.0402L11.2 12.4002L13.36 9.5202C13.6 9.28019 13.92 9.2002 14.24 9.4402C14.48 9.6002 14.48 10.0002 14.32 10.2402Z" fill="white"/>
</g>
<defs>
<clipPath id="clip0_1681_1630">
<rect width="16" height="16" fill="white"/>
</clipPath>
</defs>
</svg>
