<svg width="20" height="20" viewBox="0 0 20 20" fill="none" xmlns="http://www.w3.org/2000/svg">
<path d="M18.9563 1.04373C18.288 0.37544 17.3816 0 16.4364 0C15.4913 0 14.5849 0.37544 13.9166 1.04373L11.9545 3.00581L11.9416 2.99286C11.7797 2.831 11.5876 2.70259 11.3761 2.61499C11.1646 2.52739 10.938 2.4823 10.7091 2.4823C10.4802 2.4823 10.2535 2.52739 10.042 2.61499C9.83053 2.70259 9.63838 2.831 9.47653 2.99286L8.89388 3.57651C8.56728 3.90334 8.38382 4.34648 8.38382 4.80853C8.38382 5.27058 8.56728 5.71373 8.89388 6.04056L8.90584 6.05351L2.15309 12.8063C1.945 13.0143 1.77994 13.2614 1.66732 13.5333C1.5547 13.8052 1.49674 14.0966 1.49674 14.3909V15.0761L0.221888 17.4137C-0.610751 18.9405 1.05951 20.6108 2.58634 19.7781L4.92391 18.5033H5.60914C6.20314 18.503 6.77273 18.2669 7.19275 17.8469L13.9465 11.0942L13.9584 11.1061C14.1203 11.268 14.3124 11.3964 14.5239 11.484C14.7354 11.5716 14.9621 11.6167 15.191 11.6167C15.4199 11.6167 15.6465 11.5716 15.858 11.484C16.0695 11.3964 16.2616 11.268 16.4235 11.1061L17.0071 10.5235C17.169 10.3616 17.2974 10.1695 17.385 9.95799C17.4726 9.74651 17.5177 9.51985 17.5177 9.29094C17.5177 9.06204 17.4726 8.83537 17.385 8.6239C17.2974 8.41242 17.169 8.22027 17.0071 8.05842L16.9952 8.04547L18.9573 6.08339C19.6256 5.41508 20.001 4.50868 20.001 3.56356C20.001 2.61844 19.6256 1.71204 18.9573 1.04373H18.9563ZM9.96257 7.10925L12.8908 10.0374L6.13801 16.7902C6.06859 16.8597 5.98615 16.9148 5.8954 16.9524C5.80465 16.99 5.70737 17.0093 5.60914 17.0093H4.73368C4.6087 17.0094 4.48576 17.0409 4.37612 17.1009L1.87123 18.4674C1.82393 18.4966 1.76777 18.5079 1.71287 18.4993C1.66054 18.4889 1.6126 18.4628 1.57542 18.4246C1.53716 18.3874 1.5111 18.3395 1.50073 18.2871C1.49243 18.2321 1.50409 18.1759 1.53359 18.1288L2.90008 15.6239C2.9597 15.5141 2.99087 15.3912 2.99071 15.2663V14.3909C2.99089 14.1928 3.0697 14.0029 3.20983 13.863L9.96257 7.11024V7.10925Z" fill="#3B4044"/>
<path d="M3 13H11" stroke="#3B4044" stroke-width="1.5" stroke-linecap="round"/>
</svg>
