<svg width="22" height="19" viewBox="0 0 22 19" fill="none" xmlns="http://www.w3.org/2000/svg">
<path d="M20.7702 3.0599C20.7702 4.19755 19.8479 5.1198 18.7103 5.1198C17.5726 5.1198 16.6504 4.19755 16.6504 3.0599C16.6504 1.92225 17.5726 1 18.7103 1C19.8479 1 20.7702 1.92225 20.7702 3.0599Z" fill="white"/>
<path fill-rule="evenodd" clip-rule="evenodd" d="M12.1676 2.25252C12.5927 1.88058 13.2333 1.90191 13.6327 2.3013L17.7525 6.4211C17.9537 6.6223 18.0668 6.89519 18.0668 7.17973V9.4274L20.3203 9.20204C20.9099 9.14309 21.4357 9.57325 21.4946 10.1628C21.5536 10.7524 21.1234 11.2782 20.5338 11.3371L17.1007 11.6804C16.7991 11.7106 16.4988 11.6118 16.274 11.4084C16.0493 11.205 15.921 10.916 15.921 10.6129V7.62413L12.8252 4.5283L10.8341 6.27056C10.3881 6.66074 9.71034 6.61556 9.32015 6.16963C8.92997 5.72371 8.97516 5.04592 9.42108 4.65573L12.1676 2.25252Z" fill="white"/>
<path fill-rule="evenodd" clip-rule="evenodd" d="M11.1362 9.11874C11.5821 8.72856 12.2599 8.77374 12.6501 9.21966L17.4566 14.7127C17.7197 15.0134 17.7939 15.4354 17.6492 15.8078C17.5044 16.1803 17.1647 16.4414 16.7676 16.4855L10.5879 17.1722C9.99902 17.2376 9.46857 16.8132 9.40314 16.2243C9.33771 15.6354 9.76206 15.105 10.351 15.0396L14.489 14.5798L11.0353 10.6326C10.6451 10.1867 10.6903 9.50892 11.1362 9.11874Z" fill="white"/>
<path fill-rule="evenodd" clip-rule="evenodd" d="M10.5963 12.5603L4.775 17.55C4.32512 17.9356 3.64782 17.8835 3.26221 17.4336C2.8766 16.9837 2.9287 16.3064 3.37858 15.9208L9.19987 10.9312L10.5963 12.5603Z" fill="white"/>
<path fill-rule="evenodd" clip-rule="evenodd" d="M3.93359 3.74654C3.93359 3.54903 4.09371 3.38892 4.29122 3.38892H7.38107C7.57858 3.38892 7.73869 3.54903 7.73869 3.74654C7.73869 3.94405 7.57858 4.10416 7.38107 4.10416H4.29122C4.09371 4.10416 3.93359 3.94405 3.93359 3.74654Z" fill="white"/>
<path fill-rule="evenodd" clip-rule="evenodd" d="M0.5 5.8066C0.5 5.60909 0.660113 5.44897 0.857622 5.44897H7.03733C7.23484 5.44897 7.39495 5.60909 7.39495 5.8066C7.39495 6.00411 7.23484 6.16422 7.03733 6.16422H0.857622C0.660113 6.16422 0.5 6.00411 0.5 5.8066Z" fill="white"/>
<path fill-rule="evenodd" clip-rule="evenodd" d="M3.93359 7.86641C3.93359 7.6689 4.09371 7.50879 4.29122 7.50879H7.38107C7.57858 7.50879 7.73869 7.6689 7.73869 7.86641C7.73869 8.06392 7.57858 8.22403 7.38107 8.22403H4.29122C4.09371 8.22403 3.93359 8.06392 3.93359 7.86641Z" fill="white"/>
<path d="M14.7422 4.9563L17.2304 7.47519L12.4557 12.1916L10.9728 10.6904C10.4176 10.1284 10.4232 9.22264 10.9852 8.66744L14.7422 4.9563Z" fill="white"/>
</svg>
