<svg width="25" height="25" viewBox="0 0 25 25" fill="none" xmlns="http://www.w3.org/2000/svg">
<path d="M19.5312 7.22657L18.5 6.02686C17.6256 5.10849 16.5735 4.37762 15.4077 3.87875C14.2419 3.37988 12.9868 3.12343 11.7188 3.12501C6.54297 3.12501 2.34375 7.32423 2.34375 12.5C2.34375 17.6758 6.54297 21.875 11.7188 21.875C13.6577 21.8749 15.549 21.2738 17.1323 20.1546C18.7156 19.0353 19.9131 17.4529 20.5601 15.625" stroke="white" stroke-width="2" stroke-miterlimit="10" stroke-linecap="round"/>
<path d="M22.6563 4.7567V10.1561C22.6563 10.3633 22.574 10.562 22.4275 10.7085C22.281 10.8551 22.0822 10.9374 21.875 10.9374H16.4756C15.7793 10.9374 15.4307 10.0961 15.9229 9.60387L21.3228 4.20396C21.815 3.7108 22.6563 4.06041 22.6563 4.7567Z" fill="white"/>
</svg>
