<svg width="22" height="19" viewBox="0 0 22 19" fill="none" xmlns="http://www.w3.org/2000/svg">
<path d="M10.9278 1.73781C11.1308 1.63171 11.4072 1.63171 11.6103 1.73781L18.9015 5.54837C19.2163 5.71289 19.2145 6.04778 18.8981 6.21064L11.6068 9.9628C11.4053 10.0665 11.1328 10.0665 10.9312 9.9628L3.64002 6.21064C3.32354 6.04778 3.32181 5.71289 3.63659 5.54837L10.9278 1.73781Z" stroke="#FFDE67" stroke-linejoin="round"/>
<path d="M4.09615 8.42758L3.63659 8.66776C3.32181 8.83227 3.32354 9.16716 3.64002 9.33003L10.9312 13.0822C11.1328 13.1859 11.4053 13.1859 11.6068 13.0822L18.8981 9.33003C19.2145 9.16716 19.2163 8.83227 18.9015 8.66776L18.4419 8.42758" stroke="#FFDE67" stroke-linecap="round" stroke-linejoin="round"/>
<path d="M4.09615 11.5457L3.63659 11.7859C3.32181 11.9504 3.32354 12.2853 3.64002 12.4482L10.9312 16.2004C11.1328 16.3041 11.4053 16.3041 11.6068 16.2004L18.8981 12.4482C19.2145 12.2853 19.2163 11.9504 18.9015 11.7859L18.4419 11.5457" stroke="#FFDE67" stroke-linecap="round" stroke-linejoin="round"/>
</svg>
