<svg width="22" height="19" viewBox="0 0 22 19" fill="none" xmlns="http://www.w3.org/2000/svg">
<path d="M10.9281 1.73781C11.1311 1.63171 11.4075 1.63171 11.6105 1.73781L18.9017 5.54837C19.2165 5.71289 19.2148 6.04778 18.8983 6.21064L11.6071 9.9628C11.4055 10.0665 11.1331 10.0665 10.9315 9.9628L3.64026 6.21064C3.32378 6.04778 3.32205 5.71289 3.63684 5.54837L10.9281 1.73781Z" stroke="#3B4044" stroke-linejoin="round"/>
<path d="M4.09639 8.42746L3.63684 8.66764C3.32205 8.83215 3.32378 9.16704 3.64026 9.3299L10.9315 13.0821C11.1331 13.1858 11.4055 13.1858 11.6071 13.0821L18.8983 9.3299C19.2148 9.16704 19.2165 8.83215 18.9017 8.66764L18.4422 8.42746" stroke="#3B4044" stroke-linecap="round" stroke-linejoin="round"/>
<path d="M4.09639 11.5457L3.63684 11.7859C3.32205 11.9504 3.32378 12.2853 3.64026 12.4482L10.9315 16.2004C11.1331 16.3041 11.4055 16.3041 11.6071 16.2004L18.8983 12.4482C19.2148 12.2853 19.2165 11.9504 18.9017 11.7859L18.4422 11.5457" stroke="#3B4044" stroke-linecap="round" stroke-linejoin="round"/>
</svg>
