<svg width="17" height="17" viewBox="0 0 17 17" fill="none" xmlns="http://www.w3.org/2000/svg">
<path d="M16.8583 3.6224C16.7839 3.32258 16.4087 3.22098 16.1902 3.43946L13.7212 5.90843L11.4674 5.53291L11.0919 3.27908L13.5609 0.810105C13.7807 0.590301 13.6748 0.215771 13.3729 0.140732C11.7998 -0.249072 10.0676 0.170947 8.83807 1.40012C7.5219 2.71629 7.15965 4.62414 7.7075 6.28761L0.622308 13.3728C-0.207436 14.2026 -0.207436 15.5479 0.622308 16.3777C1.45205 17.2074 2.79744 17.2074 3.62718 16.3777L10.7064 9.29847C12.3705 9.85329 14.2747 9.48706 15.5995 8.16226C16.8304 6.93142 17.2497 5.19656 16.8583 3.6224ZM2.12508 15.6718C1.68514 15.6718 1.3282 15.3149 1.3282 14.8749C1.3282 14.4346 1.68514 14.078 2.12508 14.078C2.56502 14.078 2.92195 14.4346 2.92195 14.8749C2.92195 15.3149 2.56502 15.6718 2.12508 15.6718Z" fill="#FFDE67"/>
</svg>
