<svg width="27" height="27" viewBox="0 0 27 27" fill="none" xmlns="http://www.w3.org/2000/svg">
<path d="M26.7749 5.75323C26.6568 5.27704 26.0609 5.11567 25.7139 5.46266L21.7926 9.38398L18.213 8.78756L17.6165 5.20796L21.5378 1.28664C21.8869 0.937537 21.7187 0.342695 21.2394 0.223515C18.7408 -0.395585 15.9897 0.271503 14.0369 2.22373C11.9465 4.31411 11.3712 7.34422 12.2413 9.98621L0.988371 21.2392C-0.329457 22.557 -0.329457 24.6938 0.988371 26.0116C2.3062 27.3295 4.44299 27.3295 5.76082 26.0116L17.0043 14.7682C19.6473 15.6493 22.6716 15.0677 24.7757 12.9636C26.7306 11.0087 27.3966 8.25336 26.7749 5.75323ZM3.37512 24.8905C2.67639 24.8905 2.1095 24.3236 2.1095 23.6249C2.1095 22.9256 2.67639 22.3593 3.37512 22.3593C4.07385 22.3593 4.64074 22.9256 4.64074 23.6249C4.64074 24.3236 4.07385 24.8905 3.37512 24.8905Z" fill="#3B4044"/>
</svg>
