<svg width="36" height="36" viewBox="0 0 36 36" fill="none" xmlns="http://www.w3.org/2000/svg">
<rect x="6.14288" y="21.5715" width="23.7143" height="6.22857" rx="3.11429" stroke="white" stroke-width="2"/>
<circle cx="10.2857" cy="24.6858" r="1.02857" fill="white"/>
<circle cx="25.7143" cy="24.6858" r="1.02857" fill="white"/>
<circle cx="18" cy="24.6858" r="1.02857" fill="white"/>
<path d="M13.4321 7.84652C13.5259 7.75275 13.6531 7.70007 13.7857 7.70007H22.2144C22.347 7.70007 22.4742 7.75275 22.568 7.84652L24.0393 9.31788C24.1331 9.41164 24.1858 9.53882 24.1858 9.67143V18.5429C24.1858 18.8191 23.9619 19.0429 23.6858 19.0429H12.3143C12.0382 19.0429 11.8143 18.8191 11.8143 18.5429V9.67143C11.8143 9.53882 11.867 9.41164 11.9608 9.31788L13.4321 7.84652Z" stroke="white"/>
<path d="M16.9715 8.22864H19.0286L19.5429 9.25721V13.3715H16.4572V9.25721L16.9715 8.22864Z" fill="white"/>
<rect x="12.3429" y="9.2572" width="11.3143" height="1.02857" fill="white"/>
</svg>
