<svg width="29" height="25" viewBox="0 0 29 25" fill="none" xmlns="http://www.w3.org/2000/svg">
<path d="M1 24L8.55316 1C8.55316 1 11.8203 3.27864 17.6521 3.27864C17.6521 3.27864 23.3082 3.06502 27.0672 5.91331L22.6407 20.1548C22.6407 20.1548 20.041 17.8762 13.0851 17.8406C13.0851 17.8406 7.04253 17.7694 3.951 14.9923" stroke="white" stroke-width="2" stroke-miterlimit="10" stroke-linecap="round" stroke-linejoin="round"/>
<path d="M7.21815 5.09424C7.21815 5.09424 9.22062 6.44718 11.469 6.91003L9.95837 11.7877C9.95837 11.7877 7.46407 11.2537 5.70752 9.79393L7.21815 5.09424Z" fill="white"/>
<path d="M15.9306 7.55127L14.4902 12.5002C14.4902 12.5002 16.844 12.3222 19.3734 12.8918L20.8841 8.08533C20.8841 8.04973 18.7411 7.37326 15.9306 7.55127Z" fill="white"/>
<path d="M12.7339 2.70898L11.4341 6.94583C11.4341 6.94583 12.8042 7.33747 14.2797 7.37307C14.2797 7.37307 15.5795 7.55109 15.9308 7.55109L17.301 3.24304C17.301 3.24304 13.5771 3.34985 12.7339 2.70898Z" fill="white"/>
<path d="M20.8843 8.04975L22.2544 3.7417C22.2544 3.7417 25.8729 4.56058 27.1025 5.87792L25.7675 10.186C25.7675 10.2216 23.4137 8.37018 20.8843 8.04975Z" fill="white"/>
<path d="M9.92313 11.8237C9.92313 11.8237 12.2066 12.4646 14.4902 12.5002L13.0498 17.8408C13.0498 17.8408 10.3798 17.7696 8.27197 17.1287L9.92313 11.8237Z" fill="white"/>
<path d="M19.3738 12.8916L17.6875 18.2678C17.6875 18.2678 20.9547 18.9798 22.641 20.1548L24.3273 14.8142C24.2921 14.8142 22.7464 13.6749 19.3738 12.8916Z" fill="white"/>
</svg>
