<svg width="21" height="21" viewBox="0 0 21 21" fill="none" xmlns="http://www.w3.org/2000/svg">
<path d="M10.5 0C4.704 0 0 4.704 0 10.5C0 16.296 4.704 21 10.5 21C16.296 21 21 16.296 21 10.5C21 4.704 16.296 0 10.5 0ZM10.5 3.14999C12.243 3.14999 13.65 4.55698 13.65 6.29998C13.65 8.04298 12.243 9.45002 10.5 9.45002C8.757 9.45002 7.35001 8.04298 7.35001 6.29998C7.35001 4.55698 8.757 3.14999 10.5 3.14999ZM10.5 18.06C7.875 18.06 5.55449 16.716 4.19999 14.679C4.23149 12.5895 8.4 11.445 10.5 11.445C12.5895 11.445 16.7685 12.5895 16.8 14.679C15.4455 16.716 13.125 18.06 10.5 18.06Z" fill="white"/>
</svg>
