<svg width="16" height="16" viewBox="0 0 16 16" fill="none" xmlns="http://www.w3.org/2000/svg">
<path d="M2.66673 0C1.95947 0 1.28118 0.280959 0.781069 0.781069C0.280959 1.28118 0 1.95947 0 2.66673V13.3337C0 14.0409 0.280959 14.7192 0.781069 15.2193C1.28118 15.7195 1.95947 16.0004 2.66673 16.0004H7.11129C7.34705 16.0004 7.57315 15.9068 7.73985 15.7401C7.90655 15.5734 8.00021 15.3473 8.00021 15.1115C8.00021 14.8757 7.90655 14.6496 7.73985 14.4829C7.57315 14.3162 7.34705 14.2226 7.11129 14.2226H2.66673C2.43098 14.2226 2.20488 14.1289 2.03818 13.9622C1.87148 13.7955 1.77782 13.5694 1.77782 13.3337V2.66673C1.77782 2.43098 1.87148 2.20488 2.03818 2.03818C2.20488 1.87148 2.43098 1.77782 2.66673 1.77782H7.11129C7.34705 1.77782 7.57315 1.68417 7.73985 1.51747C7.90655 1.35076 8.00021 1.12467 8.00021 0.888912C8.00021 0.653158 7.90655 0.427059 7.73985 0.260356C7.57315 0.0936529 7.34705 0 7.11129 0H2.66673Z" fill="#FF5F57"/>
<path d="M10.9272 3.81586C11.0939 3.64922 11.3199 3.5556 11.5556 3.5556C11.7913 3.5556 12.0174 3.64922 12.1841 3.81586L15.7397 7.37151C15.9064 7.53821 16 7.76426 16 7.99997C16 8.23568 15.9064 8.46174 15.7397 8.62843L12.1841 12.1841C12.0164 12.346 11.7919 12.4356 11.5588 12.4336C11.3258 12.4315 11.1028 12.3381 10.938 12.1733C10.7732 12.0084 10.6797 11.7855 10.6777 11.5524C10.6757 11.3193 10.7653 11.0948 10.9272 10.9272L12.9654 8.88888H6.22216C5.98641 8.88888 5.76031 8.79523 5.59361 8.62853C5.42691 8.46182 5.33325 8.23573 5.33325 7.99997C5.33325 7.76422 5.42691 7.53812 5.59361 7.37142C5.76031 7.20471 5.98641 7.11106 6.22216 7.11106H12.9654L10.9272 5.07279C10.7605 4.90609 10.6669 4.68003 10.6669 4.44432C10.6669 4.20862 10.7605 3.98256 10.9272 3.81586Z" fill="#FF5F57"/>
</svg>
