<svg width="43" height="43" viewBox="0 0 43 43" fill="none" xmlns="http://www.w3.org/2000/svg">
<g filter="url(#filter0_i)">
<path d="M21.5 0C9.632 0 0 9.632 0 21.5C0 33.368 9.632 43 21.5 43C33.368 43 43 33.368 43 21.5C43 9.632 33.368 0 21.5 0ZM21.5 6.44998C25.069 6.44998 27.95 9.33095 27.95 12.9C27.95 16.469 25.069 19.35 21.5 19.35C17.931 19.35 15.05 16.469 15.05 12.9C15.05 9.33095 17.931 6.44998 21.5 6.44998ZM21.5 36.98C16.125 36.98 11.3735 34.228 8.59999 30.057C8.66449 25.7785 17.2 23.435 21.5 23.435C25.7785 23.435 34.3355 25.7785 34.4 30.057C31.6265 34.228 26.875 36.98 21.5 36.98Z" fill="#DADADA"/>
</g>
<path d="M8.10005 30.0494L8.09771 30.2046L8.18363 30.3338C11.0458 34.6382 15.9506 37.48 21.5 37.48C27.0494 37.48 31.9542 34.6382 34.8164 30.3338L34.9023 30.2046L34.9 30.0494C34.8811 28.7998 34.2399 27.7309 33.3004 26.8521C32.3629 25.9753 31.0946 25.2533 29.723 24.6802C26.9819 23.5349 23.7077 22.935 21.5 22.935C19.2817 22.935 16.0074 23.5348 13.2688 24.6803C11.8984 25.2534 10.632 25.9755 9.69624 26.8525C8.75833 27.7314 8.11888 28.8002 8.10005 30.0494ZM0.5 21.5C0.5 9.90814 9.90814 0.5 21.5 0.5C33.0919 0.5 42.5 9.90814 42.5 21.5C42.5 33.0919 33.0919 42.5 21.5 42.5C9.90814 42.5 0.5 33.0919 0.5 21.5ZM28.45 12.9C28.45 9.05481 25.3451 5.94998 21.5 5.94998C17.6549 5.94998 14.55 9.05481 14.55 12.9C14.55 16.7451 17.6548 19.85 21.5 19.85C25.3452 19.85 28.45 16.7451 28.45 12.9Z" stroke="#343F48"/>
<defs>
<filter id="filter0_i" x="0" y="0" width="45" height="45" filterUnits="userSpaceOnUse" color-interpolation-filters="sRGB">
<feFlood flood-opacity="0" result="BackgroundImageFix"/>
<feBlend mode="normal" in="SourceGraphic" in2="BackgroundImageFix" result="shape"/>
<feColorMatrix in="SourceAlpha" type="matrix" values="0 0 0 0 0 0 0 0 0 0 0 0 0 0 0 0 0 0 127 0" result="hardAlpha"/>
<feOffset dx="2" dy="2"/>
<feGaussianBlur stdDeviation="2.5"/>
<feComposite in2="hardAlpha" operator="arithmetic" k2="-1" k3="1"/>
<feColorMatrix type="matrix" values="0 0 0 0 0 0 0 0 0 0 0 0 0 0 0 0 0 0 0.7 0"/>
<feBlend mode="normal" in2="shape" result="effect1_innerShadow"/>
</filter>
</defs>
</svg>
