<svg width="22" height="22" viewBox="0 0 22 22" fill="none" xmlns="http://www.w3.org/2000/svg">
<path d="M10.7657 2.08436C10.9687 1.97826 11.2451 1.97826 11.4482 2.08436L20.577 6.85529C20.8918 7.0198 20.89 7.3547 20.5736 7.51756L11.4447 12.2154C11.2431 12.3191 10.9707 12.3191 10.7691 12.2154L1.64031 7.51756C1.32383 7.3547 1.3221 7.0198 1.63689 6.85529L10.7657 2.08436Z" stroke="white" stroke-width="2" stroke-linejoin="round"/>
<path d="M2.34008 10.3003L1.63689 10.6678C1.3221 10.8323 1.32383 11.1672 1.64031 11.3301L10.7691 16.0279C10.9707 16.1316 11.2431 16.1316 11.4447 16.0279L20.5736 11.3301C20.89 11.1672 20.8918 10.8323 20.577 10.6678L19.8738 10.3003" stroke="white" stroke-width="2" stroke-linecap="round" stroke-linejoin="round"/>
<path d="M2.34008 14.1118L1.63689 14.4793C1.3221 14.6438 1.32383 14.9787 1.64031 15.1416L10.7691 19.8394C10.9707 19.9431 11.2431 19.9431 11.4447 19.8394L20.5736 15.1416C20.89 14.9787 20.8918 14.6438 20.577 14.4793L19.8738 14.1118" stroke="white" stroke-width="2" stroke-linecap="round" stroke-linejoin="round"/>
</svg>
