<svg width="48" height="42" viewBox="0 0 48 42" fill="none" xmlns="http://www.w3.org/2000/svg">
<g filter="url(#filter0_d)">
<path d="M36.25 31.5C36.25 31.5 38 31.5 38 29.75C38 28 36.25 22.75 29.25 22.75C22.25 22.75 20.5 28 20.5 29.75C20.5 31.5 22.25 31.5 22.25 31.5H36.25ZM22.2885 29.75C22.2756 29.7482 22.2627 29.7459 22.25 29.743C22.2517 29.281 22.5422 27.9405 23.58 26.733C24.546 25.6007 26.2435 24.5 29.25 24.5C32.2547 24.5 33.9522 25.6025 34.92 26.733C35.9578 27.9405 36.2465 29.2827 36.25 29.743L36.236 29.7465C36.2279 29.7479 36.2197 29.749 36.2115 29.75H22.2885ZM29.25 19.25C30.1783 19.25 31.0685 18.8813 31.7249 18.2249C32.3813 17.5685 32.75 16.6783 32.75 15.75C32.75 14.8217 32.3813 13.9315 31.7249 13.2751C31.0685 12.6187 30.1783 12.25 29.25 12.25C28.3217 12.25 27.4315 12.6187 26.7751 13.2751C26.1187 13.9315 25.75 14.8217 25.75 15.75C25.75 16.6783 26.1187 17.5685 26.7751 18.2249C27.4315 18.8813 28.3217 19.25 29.25 19.25ZM34.5 15.75C34.5 16.4394 34.3642 17.1221 34.1004 17.7591C33.8365 18.396 33.4498 18.9748 32.9623 19.4623C32.4748 19.9498 31.896 20.3365 31.2591 20.6004C30.6221 20.8642 29.9394 21 29.25 21C28.5606 21 27.8779 20.8642 27.2409 20.6004C26.604 20.3365 26.0252 19.9498 25.5377 19.4623C25.0502 18.9748 24.6635 18.396 24.3996 17.7591C24.1358 17.1221 24 16.4394 24 15.75C24 14.3576 24.5531 13.0223 25.5377 12.0377C26.5223 11.0531 27.8576 10.5 29.25 10.5C30.6424 10.5 31.9777 11.0531 32.9623 12.0377C33.9469 13.0223 34.5 14.3576 34.5 15.75ZM20.7514 24.5562C21.2763 23.942 21.0707 22.9335 20.2684 22.8376C20.1743 22.8263 20.08 22.8164 19.9855 22.8077C19.5748 22.7687 19.1625 22.7494 18.75 22.75C11.75 22.75 10 28 10 29.75C10 30.9172 10.5827 31.5 11.75 31.5H17.5461C18.2807 31.5 18.7814 30.7083 18.7524 29.9744C18.7495 29.8997 18.7487 29.8249 18.75 29.75C18.75 27.9825 19.4097 26.1765 20.6575 24.668C20.6884 24.6306 20.7198 24.5933 20.7514 24.5562ZM18.61 24.5C17.5743 26.0562 17.0148 27.8807 17 29.75H11.75C11.75 29.295 12.037 27.9475 13.08 26.733C14.0338 25.62 15.691 24.535 18.61 24.5018V24.5ZM12.625 16.625C12.625 15.2326 13.1781 13.8973 14.1627 12.9127C15.1473 11.9281 16.4826 11.375 17.875 11.375C19.2674 11.375 20.6027 11.9281 21.5873 12.9127C22.5719 13.8973 23.125 15.2326 23.125 16.625C23.125 18.0174 22.5719 19.3527 21.5873 20.3373C20.6027 21.3219 19.2674 21.875 17.875 21.875C16.4826 21.875 15.1473 21.3219 14.1627 20.3373C13.1781 19.3527 12.625 18.0174 12.625 16.625ZM17.875 13.125C16.9467 13.125 16.0565 13.4937 15.4001 14.1501C14.7437 14.8065 14.375 15.6967 14.375 16.625C14.375 17.5533 14.7437 18.4435 15.4001 19.0999C16.0565 19.7563 16.9467 20.125 17.875 20.125C18.8033 20.125 19.6935 19.7563 20.3499 19.0999C21.0063 18.4435 21.375 17.5533 21.375 16.625C21.375 15.6967 21.0063 14.8065 20.3499 14.1501C19.6935 13.4937 18.8033 13.125 17.875 13.125Z" fill="#C0C1C2"/>
</g>
<defs>
<filter id="filter0_d" x="0" y="-3" width="48" height="48" filterUnits="userSpaceOnUse" color-interpolation-filters="sRGB">
<feFlood flood-opacity="0" result="BackgroundImageFix"/>
<feColorMatrix in="SourceAlpha" type="matrix" values="0 0 0 0 0 0 0 0 0 0 0 0 0 0 0 0 0 0 127 0"/>
<feOffset/>
<feGaussianBlur stdDeviation="5"/>
<feColorMatrix type="matrix" values="0 0 0 0 0.752941 0 0 0 0 0.756863 0 0 0 0 0.760784 0 0 0 0.5 0"/>
<feBlend mode="normal" in2="BackgroundImageFix" result="effect1_dropShadow"/>
<feBlend mode="normal" in="SourceGraphic" in2="effect1_dropShadow" result="shape"/>
</filter>
</defs>
</svg>
