<svg width="28" height="23" viewBox="0 0 28 23" fill="none" xmlns="http://www.w3.org/2000/svg">
<path d="M27.0273 2.74658C27.0273 4.26348 25.7977 5.49317 24.2808 5.49317C22.7639 5.49317 21.5342 4.26348 21.5342 2.74658C21.5342 1.22969 22.7639 0 24.2808 0C25.7977 0 27.0273 1.22969 27.0273 2.74658Z" fill="white"/>
<path fill-rule="evenodd" clip-rule="evenodd" d="M15.5564 1.66986C16.1232 1.17394 16.9774 1.20238 17.5099 1.73491L23.0031 7.22808C23.2714 7.49635 23.4221 7.86021 23.4221 8.2396V11.2365L26.4269 10.9361C27.213 10.8575 27.914 11.431 27.9926 12.2171C28.0712 13.0033 27.4977 13.7043 26.7116 13.7829L22.1339 14.2407C21.7318 14.2809 21.3314 14.1491 21.0317 13.8779C20.732 13.6067 20.5611 13.2214 20.5611 12.8172V8.83214L16.4332 4.70429L13.7783 7.02735C13.1837 7.5476 12.28 7.48735 11.7597 6.89278C11.2395 6.29821 11.2997 5.39446 11.8943 4.87421L15.5564 1.66986Z" fill="white"/>
<path fill-rule="evenodd" clip-rule="evenodd" d="M14.1835 10.8252C14.778 10.3049 15.6818 10.3652 16.202 10.9597L22.6107 18.2839C22.9615 18.6849 23.0605 19.2475 22.8675 19.7441C22.6746 20.2407 22.2216 20.5889 21.6921 20.6477L13.4524 21.5632C12.6672 21.6505 11.9599 21.0847 11.8726 20.2994C11.7854 19.5142 12.3512 18.807 13.1364 18.7197L18.654 18.1067L14.0489 12.8437C13.5286 12.2491 13.5889 11.3454 14.1835 10.8252Z" fill="white"/>
<path fill-rule="evenodd" clip-rule="evenodd" d="M13.4612 15.414L5.69939 22.067C5.09954 22.5811 4.19646 22.5117 3.6823 21.9118C3.16815 21.312 3.23761 20.4089 3.83746 19.8947L11.5993 13.2417L13.4612 15.414Z" fill="white"/>
<path fill-rule="evenodd" clip-rule="evenodd" d="M4.57764 3.6619C4.57764 3.39855 4.79112 3.18506 5.05447 3.18506H9.17435C9.4377 3.18506 9.65119 3.39855 9.65119 3.6619C9.65119 3.92525 9.4377 4.13873 9.17435 4.13873H5.05447C4.79112 4.13873 4.57764 3.92525 4.57764 3.6619Z" fill="white"/>
<path fill-rule="evenodd" clip-rule="evenodd" d="M0 6.40848C0 6.14513 0.213487 5.93164 0.476837 5.93164H8.71659C8.97994 5.93164 9.19343 6.14513 9.19343 6.40848C9.19343 6.67183 8.97994 6.88532 8.71659 6.88532H0.476837C0.213487 6.88532 0 6.67183 0 6.40848Z" fill="white"/>
<path fill-rule="evenodd" clip-rule="evenodd" d="M4.57764 9.15506C4.57764 8.89171 4.79112 8.67822 5.05447 8.67822H9.17435C9.4377 8.67822 9.65119 8.89171 9.65119 9.15506C9.65119 9.41841 9.4377 9.6319 9.17435 9.6319H5.05447C4.79112 9.6319 4.57764 9.41841 4.57764 9.15506Z" fill="white"/>
<path d="M18.9902 5.27539L22.3078 8.63398L15.9415 14.9226L13.9643 12.921C13.224 12.1716 13.2314 10.9639 13.9809 10.2237L18.9902 5.27539Z" fill="white"/>
</svg>
