<svg width="140" height="141" viewBox="0 0 140 141" fill="none" xmlns="http://www.w3.org/2000/svg">
<g filter="url(#filter0_d)">
<rect x="70" y="0.982742" width="92.3381" height="92.3381" rx="11.5" transform="rotate(45 70 0.982742)" stroke="#C0C1C2"/>
</g>
<g filter="url(#filter1_d)">
<path fill-rule="evenodd" clip-rule="evenodd" d="M87 74.5157V66.0625H88V75.1093L82.815 77.9375H79.5625V71.75H80.5625V76.9375H82.56L87 74.5157Z" fill="white"/>
<path fill-rule="evenodd" clip-rule="evenodd" d="M72.6557 47.0744C72.7526 47.333 72.6216 47.6212 72.3631 47.7181L58.3631 52.9681L58.012 52.0318L72.012 46.7818C72.2705 46.6849 72.5587 46.8159 72.6557 47.0744Z" fill="white"/>
<path fill-rule="evenodd" clip-rule="evenodd" d="M69.1529 39.6292C69.2541 39.8862 69.1278 40.1765 68.8709 40.2777L54.4334 45.9652L54.0669 45.0348L68.5044 39.3473C68.7613 39.2461 69.0516 39.3723 69.1529 39.6292Z" fill="white"/>
<path fill-rule="evenodd" clip-rule="evenodd" d="M80.0461 53.147L77.4211 47.4595L78.3291 47.0405L80.9541 52.728L80.0461 53.147Z" fill="white"/>
<path fill-rule="evenodd" clip-rule="evenodd" d="M85.7404 53.1611L80.4904 42.6611L81.3848 42.2139L86.6348 52.7139L85.7404 53.1611Z" fill="white"/>
<path fill-rule="evenodd" clip-rule="evenodd" d="M65.4865 62.0625H69.1875V86.1875H68.1875V63.0625H65.7635L50.451 72.25H46.5V86.1875H45.5V71.25H50.174L65.4865 62.0625Z" fill="white"/>
<path fill-rule="evenodd" clip-rule="evenodd" d="M93.5 86.75H46.5V90H93.5V86.75ZM45.5 85.75V91H94.5V85.75H45.5Z" fill="white"/>
<path fill-rule="evenodd" clip-rule="evenodd" d="M58.5625 70.8125H68.25V71.8125H59.5625V85.75H58.5625V70.8125Z" fill="white"/>
<path fill-rule="evenodd" clip-rule="evenodd" d="M65.5 75.375H62.25V82.125H65.5V75.375ZM61.25 74.375V83.125H66.5V74.375H61.25Z" fill="white"/>
<path fill-rule="evenodd" clip-rule="evenodd" d="M52.0626 54.125C53.685 54.125 55.0001 52.8098 55.0001 51.1875C55.0001 49.5652 53.685 48.25 52.0626 48.25C50.4403 48.25 49.1251 49.5652 49.1251 51.1875C49.1251 52.8098 50.4403 54.125 52.0626 54.125ZM52.0626 55.125C54.2372 55.125 56.0001 53.3621 56.0001 51.1875C56.0001 49.0129 54.2372 47.25 52.0626 47.25C49.888 47.25 48.1251 49.0129 48.1251 51.1875C48.1251 53.3621 49.888 55.125 52.0626 55.125Z" fill="white"/>
<path fill-rule="evenodd" clip-rule="evenodd" d="M74.8125 44.5C76.4348 44.5 77.75 43.1848 77.75 41.5625C77.75 39.9402 76.4348 38.625 74.8125 38.625C73.1902 38.625 71.875 39.9402 71.875 41.5625C71.875 43.1848 73.1902 44.5 74.8125 44.5ZM74.8125 45.5C76.9871 45.5 78.75 43.7371 78.75 41.5625C78.75 39.3879 76.9871 37.625 74.8125 37.625C72.6379 37.625 70.875 39.3879 70.875 41.5625C70.875 43.7371 72.6379 45.5 74.8125 45.5Z" fill="white"/>
<path fill-rule="evenodd" clip-rule="evenodd" d="M52.0625 56.75C55.1346 56.75 57.625 54.2596 57.625 51.1875C57.625 48.1154 55.1346 45.625 52.0625 45.625C48.9904 45.625 46.5 48.1154 46.5 51.1875C46.5 54.2596 48.9904 56.75 52.0625 56.75ZM52.0625 57.75C55.6869 57.75 58.625 54.8119 58.625 51.1875C58.625 47.5631 55.6869 44.625 52.0625 44.625C48.4381 44.625 45.5 47.5631 45.5 51.1875C45.5 54.8119 48.4381 57.75 52.0625 57.75Z" fill="white"/>
<path fill-rule="evenodd" clip-rule="evenodd" d="M74.8125 47.125C77.8846 47.125 80.375 44.6346 80.375 41.5625C80.375 38.4904 77.8846 36 74.8125 36C71.7404 36 69.25 38.4904 69.25 41.5625C69.25 44.6346 71.7404 47.125 74.8125 47.125ZM74.8125 48.125C78.4369 48.125 81.375 45.1869 81.375 41.5625C81.375 37.9381 78.4369 35 74.8125 35C71.1881 35 68.25 37.9381 68.25 41.5625C68.25 45.1869 71.1881 48.125 74.8125 48.125Z" fill="white"/>
<path fill-rule="evenodd" clip-rule="evenodd" d="M56.0088 68.0698L49.4463 57.1323L50.3038 56.6178L56.8663 67.5553L56.0088 68.0698Z" fill="white"/>
<path fill-rule="evenodd" clip-rule="evenodd" d="M63.8938 63.7106L57.3313 53.6481L58.1689 53.1019L64.7314 63.1644L63.8938 63.7106Z" fill="white"/>
<path fill-rule="evenodd" clip-rule="evenodd" d="M90 53.5H78V65.5H90V53.5ZM77 52.5V66.5H91V52.5H77Z" fill="white"/>
</g>
<defs>
<filter id="filter0_d" x="0" y="0.275635" width="140" height="140" filterUnits="userSpaceOnUse" color-interpolation-filters="sRGB">
<feFlood flood-opacity="0" result="BackgroundImageFix"/>
<feColorMatrix in="SourceAlpha" type="matrix" values="0 0 0 0 0 0 0 0 0 0 0 0 0 0 0 0 0 0 127 0"/>
<feOffset dy="4"/>
<feGaussianBlur stdDeviation="2"/>
<feColorMatrix type="matrix" values="0 0 0 0 0 0 0 0 0 0 0 0 0 0 0 0 0 0 0.5 0"/>
<feBlend mode="normal" in2="BackgroundImageFix" result="effect1_dropShadow"/>
<feBlend mode="normal" in="SourceGraphic" in2="effect1_dropShadow" result="shape"/>
</filter>
<filter id="filter1_d" x="41.5" y="35" width="57" height="64" filterUnits="userSpaceOnUse" color-interpolation-filters="sRGB">
<feFlood flood-opacity="0" result="BackgroundImageFix"/>
<feColorMatrix in="SourceAlpha" type="matrix" values="0 0 0 0 0 0 0 0 0 0 0 0 0 0 0 0 0 0 127 0"/>
<feOffset dy="4"/>
<feGaussianBlur stdDeviation="2"/>
<feColorMatrix type="matrix" values="0 0 0 0 0 0 0 0 0 0 0 0 0 0 0 0 0 0 0.5 0"/>
<feBlend mode="normal" in2="BackgroundImageFix" result="effect1_dropShadow"/>
<feBlend mode="normal" in="SourceGraphic" in2="effect1_dropShadow" result="shape"/>
</filter>
</defs>
</svg>
