<svg width="50" height="50" viewBox="0 0 50 50" fill="none" xmlns="http://www.w3.org/2000/svg">
<g filter="url(#filter0_d)">
<rect x="25" y="0.353553" width="29.1985" height="29.1985" rx="2.75" transform="rotate(45 25 0.353553)" stroke="white" stroke-width="0.5"/>
</g>
<g filter="url(#filter1_d)">
<path fill-rule="evenodd" clip-rule="evenodd" d="M30.4091 23.622V20.9323H30.7273V23.8109L29.0775 24.7108H28.0427V22.742H28.3608V24.3926H28.9964L30.4091 23.622Z" fill="white"/>
<path fill-rule="evenodd" clip-rule="evenodd" d="M25.8449 14.8907C25.8758 14.973 25.8341 15.0647 25.7518 15.0955L21.2973 16.766L21.1855 16.4681L25.6401 14.7976C25.7224 14.7668 25.8141 14.8084 25.8449 14.8907Z" fill="white"/>
<path fill-rule="evenodd" clip-rule="evenodd" d="M24.7303 12.5218C24.7625 12.6035 24.7224 12.6959 24.6406 12.7281L20.0469 14.5377L19.9302 14.2417L24.524 12.432C24.6057 12.3998 24.6981 12.44 24.7303 12.5218Z" fill="white"/>
<path fill-rule="evenodd" clip-rule="evenodd" d="M28.1964 16.8231L27.3611 15.0134L27.65 14.8801L28.4853 16.6897L28.1964 16.8231Z" fill="white"/>
<path fill-rule="evenodd" clip-rule="evenodd" d="M30.0083 16.8275L28.3378 13.4866L28.6224 13.3443L30.2929 16.6852L30.0083 16.8275Z" fill="white"/>
<path fill-rule="evenodd" clip-rule="evenodd" d="M23.5638 19.6597H24.7414V27.3358H24.4232V19.9779H23.6519L18.7798 22.9012H17.5226V27.3358H17.2045V22.583H18.6917L23.5638 19.6597Z" fill="white"/>
<path fill-rule="evenodd" clip-rule="evenodd" d="M32.4772 27.5148H17.5226V28.5489H32.4772V27.5148ZM17.2045 27.1967V28.8671H32.7954V27.1967H17.2045Z" fill="white"/>
<path fill-rule="evenodd" clip-rule="evenodd" d="M21.3607 22.4438H24.443V22.762H21.6788V27.1966H21.3607V22.4438Z" fill="white"/>
<path fill-rule="evenodd" clip-rule="evenodd" d="M23.5682 23.8955H22.5341V26.0433H23.5682V23.8955ZM22.2159 23.5773V26.3614H23.8863V23.5773H22.2159Z" fill="white"/>
<path fill-rule="evenodd" clip-rule="evenodd" d="M19.2926 17.1342C19.8088 17.1342 20.2273 16.7158 20.2273 16.1996C20.2273 15.6834 19.8088 15.2649 19.2926 15.2649C18.7764 15.2649 18.358 15.6834 18.358 16.1996C18.358 16.7158 18.7764 17.1342 19.2926 17.1342ZM19.2926 17.4524C19.9846 17.4524 20.5455 16.8915 20.5455 16.1996C20.5455 15.5076 19.9846 14.9467 19.2926 14.9467C18.6007 14.9467 18.0398 15.5076 18.0398 16.1996C18.0398 16.8915 18.6007 17.4524 19.2926 17.4524Z" fill="white"/>
<path fill-rule="evenodd" clip-rule="evenodd" d="M26.5313 14.0716C27.0475 14.0716 27.4659 13.6531 27.4659 13.1369C27.4659 12.6208 27.0475 12.2023 26.5313 12.2023C26.0151 12.2023 25.5966 12.6208 25.5966 13.1369C25.5966 13.6531 26.0151 14.0716 26.5313 14.0716ZM26.5313 14.3898C27.2232 14.3898 27.7841 13.8289 27.7841 13.1369C27.7841 12.445 27.2232 11.8841 26.5313 11.8841C25.8394 11.8841 25.2784 12.445 25.2784 13.1369C25.2784 13.8289 25.8394 14.3898 26.5313 14.3898Z" fill="white"/>
<path fill-rule="evenodd" clip-rule="evenodd" d="M19.2925 17.9693C20.27 17.9693 21.0624 17.1769 21.0624 16.1994C21.0624 15.2219 20.27 14.4295 19.2925 14.4295C18.3151 14.4295 17.5226 15.2219 17.5226 16.1994C17.5226 17.1769 18.3151 17.9693 19.2925 17.9693ZM19.2925 18.2875C20.4457 18.2875 21.3806 17.3526 21.3806 16.1994C21.3806 15.0462 20.4457 14.1113 19.2925 14.1113C18.1393 14.1113 17.2045 15.0462 17.2045 16.1994C17.2045 17.3526 18.1393 18.2875 19.2925 18.2875Z" fill="white"/>
<path fill-rule="evenodd" clip-rule="evenodd" d="M26.5312 14.9069C27.5087 14.9069 28.3011 14.1145 28.3011 13.137C28.3011 12.1595 27.5087 11.3671 26.5312 11.3671C25.5537 11.3671 24.7613 12.1595 24.7613 13.137C24.7613 14.1145 25.5537 14.9069 26.5312 14.9069ZM26.5312 15.225C27.6844 15.225 28.6192 14.2902 28.6192 13.137C28.6192 11.9838 27.6844 11.0489 26.5312 11.0489C25.378 11.0489 24.4431 11.9838 24.4431 13.137C24.4431 14.2902 25.378 15.225 26.5312 15.225Z" fill="white"/>
<path fill-rule="evenodd" clip-rule="evenodd" d="M20.5483 21.5711L18.4602 18.091L18.733 17.9273L20.8211 21.4074L20.5483 21.5711Z" fill="white"/>
<path fill-rule="evenodd" clip-rule="evenodd" d="M23.0571 20.1841L20.9691 16.9824L21.2356 16.8086L23.3236 20.0103L23.0571 20.1841Z" fill="white"/>
<path fill-rule="evenodd" clip-rule="evenodd" d="M31.3637 16.9353H27.5455V20.7535H31.3637V16.9353ZM27.2273 16.6171V21.0716H31.6818V16.6171H27.2273Z" fill="white"/>
</g>
<defs>
<filter id="filter0_d" x="0" y="0" width="50" height="50" filterUnits="userSpaceOnUse" color-interpolation-filters="sRGB">
<feFlood flood-opacity="0" result="BackgroundImageFix"/>
<feColorMatrix in="SourceAlpha" type="matrix" values="0 0 0 0 0 0 0 0 0 0 0 0 0 0 0 0 0 0 127 0" result="hardAlpha"/>
<feOffset dy="4"/>
<feGaussianBlur stdDeviation="2"/>
<feColorMatrix type="matrix" values="0 0 0 0 0 0 0 0 0 0 0 0 0 0 0 0 0 0 0.5 0"/>
<feBlend mode="normal" in2="BackgroundImageFix" result="effect1_dropShadow"/>
<feBlend mode="normal" in="SourceGraphic" in2="effect1_dropShadow" result="shape"/>
</filter>
<filter id="filter1_d" x="13.2045" y="11.0489" width="23.5909" height="25.8182" filterUnits="userSpaceOnUse" color-interpolation-filters="sRGB">
<feFlood flood-opacity="0" result="BackgroundImageFix"/>
<feColorMatrix in="SourceAlpha" type="matrix" values="0 0 0 0 0 0 0 0 0 0 0 0 0 0 0 0 0 0 127 0" result="hardAlpha"/>
<feOffset dy="4"/>
<feGaussianBlur stdDeviation="2"/>
<feColorMatrix type="matrix" values="0 0 0 0 0 0 0 0 0 0 0 0 0 0 0 0 0 0 0.5 0"/>
<feBlend mode="normal" in2="BackgroundImageFix" result="effect1_dropShadow"/>
<feBlend mode="normal" in="SourceGraphic" in2="effect1_dropShadow" result="shape"/>
</filter>
</defs>
</svg>
