<svg width="114" height="117" viewBox="0 0 114 117" fill="none" xmlns="http://www.w3.org/2000/svg">
<g filter="url(#filter0_d_1651_5)">
<rect x="56.6089" y="0.707107" width="79.0568" height="79.0568" rx="11.5" transform="rotate(45 56.6089 0.707107)" stroke="#C0C1C2"/>
</g>
<g filter="url(#filter1_d_1651_5)">
<path fill-rule="evenodd" clip-rule="evenodd" d="M71.1902 63.6764V56.426H72.0479V64.1855L67.6007 66.6113H64.811V61.3042H65.6687V65.7536H67.382L71.1902 63.6764Z" fill="white"/>
<path fill-rule="evenodd" clip-rule="evenodd" d="M58.8867 40.1398C58.9699 40.3616 58.8575 40.6088 58.6357 40.692L46.6278 45.1949L46.3267 44.3918L58.3346 39.8889C58.5563 39.8057 58.8035 39.9181 58.8867 40.1398Z" fill="white"/>
<path fill-rule="evenodd" clip-rule="evenodd" d="M55.8822 33.754C55.969 33.9743 55.8608 34.2233 55.6404 34.3102L43.2572 39.1884L42.9429 38.3903L55.326 33.5121C55.5464 33.4253 55.7954 33.5336 55.8822 33.754Z" fill="white"/>
<path fill-rule="evenodd" clip-rule="evenodd" d="M65.2256 45.3482L62.9741 40.47L63.7529 40.1106L66.0044 44.9888L65.2256 45.3482Z" fill="white"/>
<path fill-rule="evenodd" clip-rule="evenodd" d="M70.1094 45.3603L65.6064 36.3544L66.3736 35.9708L70.8766 44.9768L70.1094 45.3603Z" fill="white"/>
<path fill-rule="evenodd" clip-rule="evenodd" d="M52.7378 52.9951H55.9122V73.6873H55.0544V53.8528H52.9754L39.8417 61.733H36.4529V73.6873H35.5952V60.8753H39.6041L52.7378 52.9951Z" fill="white"/>
<path fill-rule="evenodd" clip-rule="evenodd" d="M76.7652 74.1697H36.4529V76.9573H76.7652V74.1697ZM35.5952 73.312V77.815H77.6229V73.312H35.5952Z" fill="white"/>
<path fill-rule="evenodd" clip-rule="evenodd" d="M46.7988 60.5H55.1079V61.3577H47.6565V73.312H46.7988V60.5Z" fill="white"/>
<path fill-rule="evenodd" clip-rule="evenodd" d="M52.7493 64.4134H49.9617V70.2029H52.7493V64.4134ZM49.104 63.5557V71.0606H53.607V63.5557H49.104Z" fill="white"/>
<path fill-rule="evenodd" clip-rule="evenodd" d="M41.2239 46.187C42.6154 46.187 43.7434 45.059 43.7434 43.6675C43.7434 42.276 42.6154 41.148 41.2239 41.148C39.8324 41.148 38.7044 42.276 38.7044 43.6675C38.7044 45.059 39.8324 46.187 41.2239 46.187ZM41.2239 47.0447C43.0891 47.0447 44.6011 45.5327 44.6011 43.6675C44.6011 41.8023 43.0891 40.2903 41.2239 40.2903C39.3587 40.2903 37.8467 41.8023 37.8467 43.6675C37.8467 45.5327 39.3587 47.0447 41.2239 47.0447Z" fill="white"/>
<path fill-rule="evenodd" clip-rule="evenodd" d="M60.7366 37.9316C62.1281 37.9316 63.2561 36.8036 63.2561 35.4121C63.2561 34.0206 62.1281 32.8926 60.7366 32.8926C59.3451 32.8926 58.2171 34.0206 58.2171 35.4121C58.2171 36.8036 59.3451 37.9316 60.7366 37.9316ZM60.7366 38.7894C62.6018 38.7894 64.1138 37.2773 64.1138 35.4121C64.1138 33.5469 62.6018 32.0349 60.7366 32.0349C58.8714 32.0349 57.3594 33.5469 57.3594 35.4121C57.3594 37.2773 58.8714 38.7894 60.7366 38.7894Z" fill="white"/>
<path fill-rule="evenodd" clip-rule="evenodd" d="M41.2239 48.4386C43.8589 48.4386 45.9949 46.3026 45.9949 43.6676C45.9949 41.0327 43.8589 38.8966 41.2239 38.8966C38.589 38.8966 36.4529 41.0327 36.4529 43.6676C36.4529 46.3026 38.589 48.4386 41.2239 48.4386ZM41.2239 49.2963C44.3326 49.2963 46.8526 46.7763 46.8526 43.6676C46.8526 40.559 44.3326 38.0389 41.2239 38.0389C38.1153 38.0389 35.5952 40.559 35.5952 43.6676C35.5952 46.7763 38.1153 49.2963 41.2239 49.2963Z" fill="white"/>
<path fill-rule="evenodd" clip-rule="evenodd" d="M60.7366 40.1831C63.3716 40.1831 65.5076 38.0471 65.5076 35.4122C65.5076 32.7772 63.3716 30.6412 60.7366 30.6412C58.1017 30.6412 55.9656 32.7772 55.9656 35.4122C55.9656 38.0471 58.1017 40.1831 60.7366 40.1831ZM60.7366 41.0409C63.8453 41.0409 66.3653 38.5208 66.3653 35.4122C66.3653 32.3035 63.8453 29.7834 60.7366 29.7834C57.628 29.7834 55.1079 32.3035 55.1079 35.4122C55.1079 38.5208 57.628 41.0409 60.7366 41.0409Z" fill="white"/>
<path fill-rule="evenodd" clip-rule="evenodd" d="M44.6087 58.1477L38.98 48.7665L39.7155 48.3252L45.3442 57.7064L44.6087 58.1477Z" fill="white"/>
<path fill-rule="evenodd" clip-rule="evenodd" d="M51.3714 54.4088L45.7427 45.7781L46.4611 45.3096L52.0898 53.9403L51.3714 54.4088Z" fill="white"/>
<path fill-rule="evenodd" clip-rule="evenodd" d="M73.763 45.651H63.4705V55.9435H73.763V45.651ZM62.6128 44.7933V56.8012H74.6207V44.7933H62.6128Z" fill="white"/>
</g>
<defs>
<filter id="filter0_d_1651_5" x="0.970703" y="4.97058" width="111.276" height="111.276" filterUnits="userSpaceOnUse" color-interpolation-filters="sRGB">
<feFlood flood-opacity="0" result="BackgroundImageFix"/>
<feColorMatrix in="SourceAlpha" type="matrix" values="0 0 0 0 0 0 0 0 0 0 0 0 0 0 0 0 0 0 127 0" result="hardAlpha"/>
<feOffset dy="4"/>
<feGaussianBlur stdDeviation="2"/>
<feColorMatrix type="matrix" values="0 0 0 0 0 0 0 0 0 0 0 0 0 0 0 0 0 0 0.5 0"/>
<feBlend mode="normal" in2="BackgroundImageFix" result="effect1_dropShadow_1651_5"/>
<feBlend mode="normal" in="SourceGraphic" in2="effect1_dropShadow_1651_5" result="shape"/>
</filter>
<filter id="filter1_d_1651_5" x="31.5952" y="29.7834" width="50.0278" height="56.0315" filterUnits="userSpaceOnUse" color-interpolation-filters="sRGB">
<feFlood flood-opacity="0" result="BackgroundImageFix"/>
<feColorMatrix in="SourceAlpha" type="matrix" values="0 0 0 0 0 0 0 0 0 0 0 0 0 0 0 0 0 0 127 0" result="hardAlpha"/>
<feOffset dy="4"/>
<feGaussianBlur stdDeviation="2"/>
<feColorMatrix type="matrix" values="0 0 0 0 0 0 0 0 0 0 0 0 0 0 0 0 0 0 0.5 0"/>
<feBlend mode="normal" in2="BackgroundImageFix" result="effect1_dropShadow_1651_5"/>
<feBlend mode="normal" in="SourceGraphic" in2="effect1_dropShadow_1651_5" result="shape"/>
</filter>
</defs>
</svg>
