<svg width="110" height="46" viewBox="0 0 110 46" fill="none" xmlns="http://www.w3.org/2000/svg">
<g filter="url(#filter0_i)">
<path d="M1.65094 35H20.4109V29H8.81094V5.2H1.65094V35ZM34.2522 35.56C40.0122 35.56 45.3722 31.16 45.3722 23.6C45.3722 16.08 40.0122 11.68 34.2522 11.68C28.4522 11.68 23.0922 16.08 23.0922 23.6C23.0922 31.16 28.4522 35.56 34.2522 35.56ZM34.2522 29.8C31.5722 29.8 30.3722 27.4 30.3722 23.6C30.3722 19.84 31.5722 17.44 34.2522 17.44C36.8922 17.44 38.0922 19.84 38.0922 23.6C38.0922 27.4 36.8922 29.8 34.2522 29.8ZM58.0009 44.56C65.9209 44.56 70.9209 41.16 70.9209 36.36C70.9209 32.24 67.7209 30.52 62.1209 30.52H58.5209C56.0809 30.52 55.1609 30.04 55.1609 29C55.1609 28.2 55.4009 27.88 55.8809 27.4C56.8809 27.68 57.8009 27.8 58.5609 27.8C63.6009 27.8 67.6409 25.48 67.6409 20.16C67.6409 19.08 67.3609 18.04 67.0409 17.4H70.5209V12.24H62.1609C61.1209 11.88 59.8809 11.68 58.5609 11.68C53.6409 11.68 49.0409 14.4 49.0409 19.92C49.0409 22.6 50.5209 24.72 52.1609 25.84V26C50.6409 27.04 49.6009 28.64 49.6009 30.24C49.6009 32.16 50.4809 33.36 51.6809 34.16V34.36C49.5609 35.44 48.4809 36.96 48.4809 38.84C48.4809 42.92 52.7609 44.56 58.0009 44.56ZM58.5609 23.52C56.9209 23.52 55.6809 22.32 55.6809 19.92C55.6809 17.64 56.9209 16.44 58.5609 16.44C60.2409 16.44 61.4809 17.64 61.4809 19.92C61.4809 22.32 60.2409 23.52 58.5609 23.52ZM59.1209 40.12C56.2409 40.12 54.3209 39.32 54.3209 37.72C54.3209 36.96 54.6409 36.32 55.3609 35.68C56.0809 35.88 56.9609 35.96 58.6009 35.96H60.7609C62.8809 35.96 64.0809 36.24 64.0809 37.6C64.0809 39.04 62.0409 40.12 59.1209 40.12ZM74.4894 35H81.6094V12.24H74.4894V35ZM78.0494 9.08C80.4094 9.08 82.0094 7.64 82.0094 5.4C82.0094 3.2 80.4094 1.76 78.0494 1.76C75.6494 1.76 74.0894 3.2 74.0894 5.4C74.0894 7.64 75.6494 9.08 78.0494 9.08ZM87.3409 35H94.4609V19.8C95.8209 18.48 96.7809 17.76 98.3809 17.76C100.181 17.76 101.021 18.64 101.021 21.8V35H108.141V20.92C108.141 15.24 106.021 11.68 101.061 11.68C97.9809 11.68 95.6609 13.24 93.7809 15.08H93.6609L93.1409 12.24H87.3409V35Z" fill="#DADADA"/>
</g>
<path d="M1.65094 35H0.650938V36H1.65094V35ZM20.4109 35V36H21.4109V35H20.4109ZM20.4109 29H21.4109V28H20.4109V29ZM8.81094 29H7.81094V30H8.81094V29ZM8.81094 5.2H9.81094V4.2H8.81094V5.2ZM1.65094 5.2V4.2H0.650938V5.2H1.65094ZM1.65094 36H20.4109V34H1.65094V36ZM21.4109 35V29H19.4109V35H21.4109ZM20.4109 28H8.81094V30H20.4109V28ZM9.81094 29V5.2H7.81094V29H9.81094ZM8.81094 4.2H1.65094V6.2H8.81094V4.2ZM0.650938 5.2V35H2.65094V5.2H0.650938ZM34.2522 36.56C40.5576 36.56 46.3722 31.7192 46.3722 23.6H44.3722C44.3722 30.6008 39.4668 34.56 34.2522 34.56V36.56ZM46.3722 23.6C46.3722 15.5185 40.5553 10.68 34.2522 10.68V12.68C39.4691 12.68 44.3722 16.6415 44.3722 23.6H46.3722ZM34.2522 10.68C27.9114 10.68 22.0922 15.5163 22.0922 23.6H24.0922C24.0922 16.6437 28.993 12.68 34.2522 12.68V10.68ZM22.0922 23.6C22.0922 31.7214 27.9091 36.56 34.2522 36.56V34.56C28.9953 34.56 24.0922 30.5986 24.0922 23.6H22.0922ZM34.2522 28.8C33.2778 28.8 32.6294 28.3972 32.1682 27.6164C31.6651 26.7647 31.3722 25.4236 31.3722 23.6H29.3722C29.3722 25.5764 29.6793 27.3353 30.4462 28.6336C31.255 30.0028 32.5466 30.8 34.2522 30.8V28.8ZM31.3722 23.6C31.3722 21.7978 31.6646 20.4671 32.1672 19.6204C32.6282 18.8435 33.2771 18.44 34.2522 18.44V16.44C32.5472 16.44 31.2562 17.2365 30.4472 18.5996C29.6797 19.8929 29.3722 21.6422 29.3722 23.6H31.3722ZM34.2522 18.44C35.201 18.44 35.8414 18.8377 36.3005 19.6174C36.7999 20.4656 37.0922 21.7982 37.0922 23.6H39.0922C39.0922 21.6418 38.7845 19.8944 38.0239 18.6026C37.223 17.2423 35.9434 16.44 34.2522 16.44V18.44ZM37.0922 23.6C37.0922 25.4232 36.7995 26.7661 36.2994 27.6194C35.8402 28.403 35.2004 28.8 34.2522 28.8V30.8C35.944 30.8 37.2242 29.997 38.0249 28.6306C38.7849 27.3339 39.0922 25.5768 39.0922 23.6H37.0922ZM55.8809 27.4L56.1506 26.437L55.5874 26.2793L55.1738 26.6929L55.8809 27.4ZM67.0409 17.4V16.4H65.4229L66.1465 17.8472L67.0409 17.4ZM70.5209 17.4V18.4H71.5209V17.4H70.5209ZM70.5209 12.24H71.5209V11.24H70.5209V12.24ZM62.1609 12.24L61.8338 13.185L61.9928 13.24H62.1609V12.24ZM52.1609 25.84H53.1609V25.312L52.7249 25.0142L52.1609 25.84ZM52.1609 26L52.7256 26.8253L53.1609 26.5275V26H52.1609ZM51.6809 34.16H52.6809V33.6248L52.2356 33.3279L51.6809 34.16ZM51.6809 34.36L52.1349 35.251L52.6809 34.9729V34.36H51.6809ZM55.3609 35.68L55.6286 34.7165L55.1037 34.5707L54.6966 34.9326L55.3609 35.68ZM58.0009 45.56C62.089 45.56 65.5256 44.6846 67.9743 43.0995C70.4469 41.4989 71.9209 39.1569 71.9209 36.36H69.9209C69.9209 38.3631 68.895 40.1211 66.8875 41.4205C64.8563 42.7354 61.8328 43.56 58.0009 43.56V45.56ZM71.9209 36.36C71.9209 33.9911 70.9727 32.1947 69.154 31.0489C67.4165 29.9543 64.9894 29.52 62.1209 29.52V31.52C64.8525 31.52 66.8254 31.9457 68.0879 32.7411C69.2691 33.4853 69.9209 34.6089 69.9209 36.36H71.9209ZM62.1209 29.52H58.5209V31.52H62.1209V29.52ZM58.5209 29.52C57.3242 29.52 56.6732 29.3954 56.3493 29.244C56.2782 29.2108 56.236 29.182 56.2125 29.1629C56.1903 29.1447 56.1829 29.1337 56.1811 29.1311C56.1795 29.1286 56.1758 29.1227 56.1717 29.1072C56.1672 29.0901 56.1609 29.0565 56.1609 29H54.1609C54.1609 29.4117 54.2539 29.8361 54.5045 30.2214C54.7534 30.6042 55.1079 30.8715 55.5026 31.056C56.2487 31.4046 57.2777 31.52 58.5209 31.52V29.52ZM56.1609 29C56.1609 28.7047 56.2043 28.5893 56.2354 28.5272C56.2773 28.4433 56.3546 28.3405 56.588 28.1071L55.1738 26.6929C54.9273 26.9394 54.6446 27.2367 54.4465 27.6328C54.2375 28.0507 54.1609 28.4953 54.1609 29H56.1609ZM55.6113 28.363C56.6898 28.665 57.7007 28.8 58.5609 28.8V26.8C57.9012 26.8 57.072 26.695 56.1506 26.437L55.6113 28.363ZM58.5609 28.8C61.2157 28.8 63.7251 28.1914 65.5956 26.7715C67.5059 25.3213 68.6409 23.105 68.6409 20.16H66.6409C66.6409 22.535 65.756 24.1387 64.3863 25.1785C62.9767 26.2486 60.9462 26.8 58.5609 26.8V28.8ZM68.6409 20.16C68.6409 18.9306 68.3274 17.7368 67.9354 16.9528L66.1465 17.8472C66.3945 18.3432 66.6409 19.2294 66.6409 20.16H68.6409ZM67.0409 18.4H70.5209V16.4H67.0409V18.4ZM71.5209 17.4V12.24H69.5209V17.4H71.5209ZM70.5209 11.24H62.1609V13.24H70.5209V11.24ZM62.4881 11.295C61.3294 10.8939 59.9771 10.68 58.5609 10.68V12.68C59.7848 12.68 60.9125 12.8661 61.8338 13.185L62.4881 11.295ZM58.5609 10.68C55.9308 10.68 53.3202 11.4052 51.3428 12.94C49.3366 14.4972 48.0409 16.8474 48.0409 19.92H50.0409C50.0409 17.4726 51.0453 15.7028 52.5691 14.52C54.1217 13.3148 56.2711 12.68 58.5609 12.68V10.68ZM48.0409 19.92C48.0409 22.9798 49.7277 25.3892 51.597 26.6658L52.7249 25.0142C51.3142 24.0508 50.0409 22.2202 50.0409 19.92H48.0409ZM51.1609 25.84V26H53.1609V25.84H51.1609ZM51.5963 25.1747C49.8925 26.3404 48.6009 28.2153 48.6009 30.24H50.6009C50.6009 29.0647 51.3894 27.7396 52.7256 26.8253L51.5963 25.1747ZM48.6009 30.24C48.6009 32.5424 49.6905 34.0349 51.1262 34.9921L52.2356 33.3279C51.2713 32.6851 50.6009 31.7776 50.6009 30.24H48.6009ZM50.6809 34.16V34.36H52.6809V34.16H50.6809ZM51.227 33.469C48.8746 34.6673 47.4809 36.4811 47.4809 38.84H49.4809C49.4809 37.4389 50.2472 36.2127 52.1349 35.251L51.227 33.469ZM47.4809 38.84C47.4809 41.3178 48.8197 43.0533 50.8054 44.1124C52.7356 45.1418 55.3026 45.56 58.0009 45.56V43.56C55.4593 43.56 53.2663 43.1582 51.7465 42.3476C50.2822 41.5667 49.4809 40.4422 49.4809 38.84H47.4809ZM58.5609 22.52C57.9987 22.52 57.5687 22.3228 57.2647 21.9687C56.9479 21.5996 56.6809 20.9557 56.6809 19.92H54.6809C54.6809 21.2843 55.0339 22.4404 55.7471 23.2713C56.4732 24.1172 57.4832 24.52 58.5609 24.52V22.52ZM56.6809 19.92C56.6809 18.9563 56.9416 18.3435 57.2565 17.9858C57.562 17.6388 57.997 17.44 58.5609 17.44V15.44C57.4849 15.44 56.4799 15.8412 55.7554 16.6642C55.0403 17.4765 54.6809 18.6037 54.6809 19.92H56.6809ZM58.5609 17.44C59.1517 17.44 59.5962 17.6436 59.9035 17.9894C60.2203 18.3457 60.4809 18.9562 60.4809 19.92H62.4809C62.4809 18.6038 62.1216 17.4743 61.3983 16.6606C60.6657 15.8364 59.6502 15.44 58.5609 15.44V17.44ZM60.4809 19.92C60.4809 20.9559 60.2139 21.5974 59.8952 21.9651C59.5895 22.3179 59.1502 22.52 58.5609 22.52V24.52C59.6517 24.52 60.6724 24.1221 61.4066 23.2749C62.128 22.4426 62.4809 21.2841 62.4809 19.92H60.4809ZM59.1209 39.12C57.7489 39.12 56.7189 38.9257 56.0709 38.6171C55.4576 38.3251 55.3209 38.0158 55.3209 37.72H53.3209C53.3209 39.0242 54.1442 39.9149 55.211 40.4229C56.2429 40.9143 57.6129 41.12 59.1209 41.12V39.12ZM55.3209 37.72C55.3209 37.3114 55.4641 36.9262 56.0253 36.4274L54.6966 34.9326C53.8177 35.7138 53.3209 36.6086 53.3209 37.72H55.3209ZM55.0933 36.6435C55.952 36.882 56.947 36.96 58.6009 36.96V34.96C56.9749 34.96 56.2099 34.878 55.6286 34.7165L55.0933 36.6435ZM58.6009 36.96H60.7609V34.96H58.6009V36.96ZM60.7609 36.96C61.8275 36.96 62.4682 37.0389 62.825 37.1904C62.9763 37.2547 63.0175 37.3087 63.0294 37.3264C63.0406 37.3431 63.0809 37.4096 63.0809 37.6H65.0809C65.0809 37.1104 64.9713 36.6319 64.6913 36.2136C64.4118 35.7963 64.0206 35.5253 63.6069 35.3496C62.8336 35.0211 61.8143 34.96 60.7609 34.96V36.96ZM63.0809 37.6C63.0809 37.7837 62.9539 38.1428 62.2386 38.5107C61.5444 38.8677 60.4729 39.12 59.1209 39.12V41.12C60.689 41.12 62.0975 40.8323 63.1533 40.2893C64.188 39.7572 65.0809 38.8563 65.0809 37.6H63.0809ZM74.4894 35H73.4894V36H74.4894V35ZM81.6094 35V36H82.6094V35H81.6094ZM81.6094 12.24H82.6094V11.24H81.6094V12.24ZM74.4894 12.24V11.24H73.4894V12.24H74.4894ZM74.4894 36H81.6094V34H74.4894V36ZM82.6094 35V12.24H80.6094V35H82.6094ZM81.6094 11.24H74.4894V13.24H81.6094V11.24ZM73.4894 12.24V35H75.4894V12.24H73.4894ZM78.0494 10.08C79.4312 10.08 80.6789 9.65622 81.5918 8.81561C82.513 7.9673 83.0094 6.77022 83.0094 5.4H81.0094C81.0094 6.26978 80.7058 6.9127 80.237 7.34439C79.7598 7.78378 79.0275 8.08 78.0494 8.08V10.08ZM83.0094 5.4C83.0094 4.04461 82.5094 2.85773 81.5889 2.01674C80.6771 1.18363 79.4311 0.759998 78.0494 0.759998V2.76C79.0276 2.76 79.7617 3.05636 80.2399 3.49325C80.7094 3.92226 81.0094 4.55539 81.0094 5.4H83.0094ZM78.0494 0.759998C76.6511 0.759998 75.4022 1.18175 74.4922 2.01917C73.5741 2.86406 73.0894 4.05222 73.0894 5.4H75.0894C75.0894 4.54778 75.3846 3.91593 75.8465 3.49082C76.3166 3.05824 77.0477 2.76 78.0494 2.76V0.759998ZM73.0894 5.4C73.0894 6.76267 73.5706 7.96102 74.4893 8.81317C75.4003 9.65812 76.651 10.08 78.0494 10.08V8.08C77.0477 8.08 76.3185 7.78189 75.8494 7.34683C75.3881 6.91898 75.0894 6.27733 75.0894 5.4H73.0894ZM87.3409 35H86.3409V36H87.3409V35ZM94.4609 35V36H95.4609V35H94.4609ZM94.4609 19.8L93.7645 19.0824L93.4609 19.377V19.8H94.4609ZM101.021 35H100.021V36H101.021V35ZM108.141 35V36H109.141V35H108.141ZM93.7809 15.08V16.08H94.1889L94.4804 15.7947L93.7809 15.08ZM93.6609 15.08L92.6773 15.2601L92.8274 16.08H93.6609V15.08ZM93.1409 12.24L94.1246 12.0599L93.9745 11.24H93.1409V12.24ZM87.3409 12.24V11.24H86.3409V12.24H87.3409ZM87.3409 36H94.4609V34H87.3409V36ZM95.4609 35V19.8H93.4609V35H95.4609ZM95.1574 20.5176C96.4854 19.2286 97.1971 18.76 98.3809 18.76V16.76C96.3648 16.76 95.1564 17.7314 93.7645 19.0824L95.1574 20.5176ZM98.3809 18.76C99.1196 18.76 99.3897 18.9324 99.5595 19.1725C99.803 19.5166 100.021 20.251 100.021 21.8H102.021C102.021 20.189 101.819 18.9034 101.192 18.0175C100.492 17.0276 99.4423 16.76 98.3809 16.76V18.76ZM100.021 21.8V35H102.021V21.8H100.021ZM101.021 36H108.141V34H101.021V36ZM109.141 35V20.92H107.141V35H109.141ZM109.141 20.92C109.141 17.9832 108.598 15.4294 107.273 13.5864C105.907 11.6858 103.811 10.68 101.061 10.68V12.68C103.271 12.68 104.715 13.4542 105.649 14.7536C106.624 16.1106 107.141 18.1768 107.141 20.92H109.141ZM101.061 10.68C97.6048 10.68 95.0462 12.4424 93.0815 14.3653L94.4804 15.7947C96.2757 14.0376 98.3571 12.68 101.061 12.68V10.68ZM93.7809 14.08H93.6609V16.08H93.7809V14.08ZM94.6446 14.8999L94.1246 12.0599L92.1573 12.4201L92.6773 15.2601L94.6446 14.8999ZM93.1409 11.24H87.3409V13.24H93.1409V11.24ZM86.3409 12.24V35H88.3409V12.24H86.3409Z" fill="#343F48"/>
<defs>
<filter id="filter0_i" x="0.650879" y="0.759995" width="110.49" height="46.8" filterUnits="userSpaceOnUse" color-interpolation-filters="sRGB">
<feFlood flood-opacity="0" result="BackgroundImageFix"/>
<feBlend mode="normal" in="SourceGraphic" in2="BackgroundImageFix" result="shape"/>
<feColorMatrix in="SourceAlpha" type="matrix" values="0 0 0 0 0 0 0 0 0 0 0 0 0 0 0 0 0 0 127 0" result="hardAlpha"/>
<feOffset dx="2" dy="2"/>
<feGaussianBlur stdDeviation="2.5"/>
<feComposite in2="hardAlpha" operator="arithmetic" k2="-1" k3="1"/>
<feColorMatrix type="matrix" values="0 0 0 0 0 0 0 0 0 0 0 0 0 0 0 0 0 0 0.7 0"/>
<feBlend mode="normal" in2="shape" result="effect1_innerShadow"/>
</filter>
</defs>
</svg>
