<svg width="80" height="40" viewBox="0 0 80 40" fill="none" xmlns="http://www.w3.org/2000/svg">
<g clip-path="url(#clip0_275_50187)">
<path fill-rule="evenodd" clip-rule="evenodd" d="M39.338 31.1477L46.8743 18.7266V32.5735C46.8464 32.8163 46.7237 33.0382 46.5328 33.1908C46.342 33.3435 46.0986 33.4145 45.8556 33.3884C45.672 33.3893 45.4912 33.343 45.3307 33.2539C45.1702 33.1648 45.0353 33.0359 44.939 32.8796C45.0691 32.8763 45.1955 32.8361 45.3037 32.7639C45.4119 32.6917 45.4974 32.5903 45.5503 32.4715V23.6138C43.6151 26.8722 41.5784 29.9263 39.6432 33.0825C39.4395 33.4899 39.1341 33.3884 38.9305 33.0825L33.0241 23.6138V32.2677C33.0397 32.4425 33.1229 32.6042 33.256 32.7185C33.3892 32.8328 33.5617 32.8906 33.7369 32.8796C33.3294 33.5914 31.7002 33.5915 31.7002 32.7774V18.7266L39.2364 31.1477H39.338Z" fill="white"/>
<path fill-rule="evenodd" clip-rule="evenodd" d="M64.0851 32.6764C70.5011 32.6764 73.658 28.8069 74.7782 23.5129H76.0001C75.491 30.0283 70.7042 34 64.0851 34C59.9094 34 56.1414 32.7779 53.7994 29.4179V31.8616C53.901 32.2683 54.1046 32.9816 54.5121 32.9816C54.003 33.8979 52.4755 33.6941 52.5769 32.6764V23.5129H52.7807C53.7994 29.418 57.669 32.6764 64.0851 32.6764V32.6764ZM52.6791 16.8946C53.0866 10.5814 58.3818 7.32363 64.4926 7.32363C69.7877 7.32363 73.5559 10.1739 74.5746 14.756L70.2974 14.8582C69.9319 13.5481 69.1228 12.4055 68.0083 11.6254C66.8938 10.8454 65.543 10.4764 64.1866 10.5814C63.1806 10.5845 62.1823 10.7568 61.2335 11.0909C60.3817 11.5174 59.6209 12.1051 58.993 12.8213C58.1439 13.8108 57.4875 14.9504 57.0578 16.1813C56.6251 17.4244 56.4184 18.7349 56.4473 20.0508C56.417 21.3001 56.6241 22.5439 57.0578 23.7159C57.4354 25.0101 58.0579 26.2198 58.8915 27.2795C59.4968 28.0355 60.2758 28.634 61.1623 29.024C62.0488 29.414 63.0164 29.584 63.9828 29.5195C65.6771 29.5169 67.3151 28.9108 68.6029 27.81C69.8908 26.7093 70.7442 25.1858 71.0102 23.5129H69.584C69.311 24.8093 68.6337 25.9857 67.6495 26.8728C67.2253 27.3249 66.7024 27.6731 66.1217 27.8905C65.4473 28.1814 64.717 28.3205 63.9828 28.298C63.1828 28.3203 62.3864 28.1817 61.6409 27.8905C60.9593 27.514 60.3408 27.0332 59.808 26.4654C59.1382 25.5199 58.5906 24.4935 58.1781 23.4107C57.837 22.3235 57.6653 21.1902 57.669 20.0508C57.5898 18.8857 57.7475 17.7167 58.1326 16.6142C58.5176 15.5117 59.122 14.4986 59.9094 13.6361C60.3995 13.0232 61.0276 12.5349 61.7424 12.2108C62.5212 11.9112 63.3527 11.7727 64.1866 11.8036C65.335 11.733 66.4691 12.0889 67.3712 12.8029C68.2733 13.5168 68.8801 14.5387 69.075 15.6724L69.2787 16.2834H76.0001C75.5926 11.7013 73.658 8.2398 68.6674 6.71254C67.323 6.25289 65.9134 6.01231 64.4926 6C59.4005 6 55.9376 7.62881 53.7994 10.5814C53.7994 9.35982 54.0031 8.13774 54.9196 8.03617H55.1233V7.73106V6.9162H45.4482C45.2445 6.9162 45.0413 7.2221 45.0413 7.32363H44.9391L39.1342 19.3382L32.8205 7.32363H32.7182C32.6963 7.25157 32.657 7.186 32.6038 7.13267C32.5505 7.07933 32.485 7.03986 32.413 7.01774H23.8586L23.9602 7.73106V8.03617H24.0625C24.1795 8.04376 24.2939 8.07473 24.3987 8.12728C24.5036 8.17982 24.5968 8.25289 24.673 8.3421V9.66569C23.2461 8.12722 21.2706 7.21261 19.1741 7.11985H4L5.52774 8.44361V32.0654C5.52774 32.6764 5.4255 33.0831 5.018 33.0831C5.4255 33.7964 6.5457 33.6941 6.64796 32.9816V8.44361H18.7666V8.54571C19.9346 8.54616 21.0845 8.83432 22.1146 9.3847C23.1448 9.93509 24.0235 10.7308 24.673 11.7013V11.7013C25.2375 12.5932 25.5863 13.6044 25.6916 14.6546H25.8954V8.3421H32.0055L39.1342 22.5959L46.0593 8.13776H52.4754C52.4754 10.9888 52.3732 14.0434 52.3732 16.8946H52.6791ZM13.8783 18.6256V12.5161H15.406C15.9896 12.5079 16.5717 12.5764 17.1374 12.7198C17.688 12.8879 18.1813 13.2051 18.5629 13.6361C18.911 14.1828 19.0882 14.8208 19.0719 15.4687C19.103 15.963 18.9973 16.4563 18.7666 16.8946C18.6644 17.4034 18.1554 17.7093 17.8502 18.0144C17.6126 18.2097 17.334 18.3487 17.0352 18.4211C16.5365 18.5532 16.0232 18.6219 15.5074 18.6256H13.8783ZM12.4528 19.847V11.2939H15.7112C16.2904 11.267 16.8707 11.3013 17.4426 11.3961C17.9569 11.4928 18.4436 11.7014 18.8681 12.0072C19.3553 12.3807 19.7405 12.8708 19.9883 13.4324C20.2311 14.0853 20.3687 14.7726 20.3959 15.4687C20.4112 16.0933 20.3076 16.7152 20.0906 17.3011C19.9709 17.7454 19.763 18.1611 19.4793 18.5234C19.1999 18.8229 18.8931 19.0957 18.5629 19.3382C18.2142 19.5341 17.8358 19.6715 17.4426 19.7449C16.9043 19.8329 16.3585 19.8672 15.8134 19.847H12.4528ZM24.673 21.3744C21.2108 25.1411 18.8681 24.3269 13.5731 24.4284V32.1669C13.6745 32.4721 13.8783 33.0831 14.1835 33.0831C13.7767 33.7964 12.4528 33.6941 12.5542 32.778V23.207H18.7666C21.2108 23.207 23.349 21.2729 24.673 19.3382C25.2381 18.3358 25.5852 17.2255 25.6916 16.0798H25.8954V32.9816C25.7932 33.6941 24.4693 33.6941 24.0625 33.0831C24.4693 33.0831 24.673 32.4721 24.673 31.3528V21.3744Z" fill="white"/>
</g>
<defs>
<clipPath id="clip0_275_50187">
<rect width="72" height="28" fill="white" transform="translate(4 6)"/>
</clipPath>
</defs>
</svg>
