<svg width="22" height="22" viewBox="0 0 22 22" fill="none" xmlns="http://www.w3.org/2000/svg">
<path d="M20.7929 3.32211C21.1834 2.93158 21.1834 2.29842 20.7929 1.90789L20.0921 1.20711C19.7016 0.816583 19.0684 0.816582 18.6779 1.20711L11 8.885L3.32211 1.20711C2.93158 0.816582 2.29842 0.816582 1.90789 1.20711L1.20711 1.90789C0.816583 2.29842 0.816582 2.93158 1.20711 3.32211L8.885 11L1.20711 18.6779C0.816582 19.0684 0.816582 19.7016 1.20711 20.0921L1.90789 20.7929C2.29842 21.1834 2.93158 21.1834 3.32211 20.7929L11 13.115L18.6779 20.7929C19.0684 21.1834 19.7016 21.1834 20.0921 20.7929L20.7929 20.0921C21.1834 19.7016 21.1834 19.0684 20.7929 18.6779L13.115 11L20.7929 3.32211Z" fill="white" fill-opacity="0.7"/>
</svg>
